%TF.GenerationSoftware,KiCad,Pcbnew,(5.1.10)-1*%
%TF.CreationDate,2022-04-24T20:33:29+02:00*%
%TF.ProjectId,eugenio,65756765-6e69-46f2-9e6b-696361645f70,rev?*%
%TF.SameCoordinates,Original*%
%TF.FileFunction,Soldermask,Bot*%
%TF.FilePolarity,Negative*%
%FSLAX46Y46*%
G04 Gerber Fmt 4.6, Leading zero omitted, Abs format (unit mm)*
G04 Created by KiCad (PCBNEW (5.1.10)-1) date 2022-04-24 20:33:29*
%MOMM*%
%LPD*%
G01*
G04 APERTURE LIST*
%ADD10C,3.000000*%
%ADD11O,1.700000X1.700000*%
%ADD12R,1.700000X1.700000*%
%ADD13O,2.720000X3.240000*%
%ADD14C,1.800000*%
%ADD15R,1.800000X1.800000*%
%ADD16R,2.000000X2.000000*%
%ADD17C,2.000000*%
%ADD18R,2.000000X3.200000*%
%ADD19O,2.000000X1.905000*%
%ADD20R,2.000000X1.905000*%
%ADD21C,1.700000*%
%ADD22O,1.600000X1.600000*%
%ADD23R,1.600000X1.600000*%
G04 APERTURE END LIST*
%TO.C,J2*%
G36*
G01*
X90240000Y-152860000D02*
X90240000Y-152260000D01*
G75*
G02*
X90540000Y-151960000I300000J0D01*
G01*
X92340000Y-151960000D01*
G75*
G02*
X92640000Y-152260000I0J-300000D01*
G01*
X92640000Y-152860000D01*
G75*
G02*
X92340000Y-153160000I-300000J0D01*
G01*
X90540000Y-153160000D01*
G75*
G02*
X90240000Y-152860000I0J300000D01*
G01*
G37*
G36*
G01*
X90240000Y-161160000D02*
X90240000Y-160560000D01*
G75*
G02*
X90540000Y-160260000I300000J0D01*
G01*
X92340000Y-160260000D01*
G75*
G02*
X92640000Y-160560000I0J-300000D01*
G01*
X92640000Y-161160000D01*
G75*
G02*
X92340000Y-161460000I-300000J0D01*
G01*
X90540000Y-161460000D01*
G75*
G02*
X90240000Y-161160000I0J300000D01*
G01*
G37*
G36*
G01*
X90240000Y-164260000D02*
X90240000Y-163660000D01*
G75*
G02*
X90540000Y-163360000I300000J0D01*
G01*
X92340000Y-163360000D01*
G75*
G02*
X92640000Y-163660000I0J-300000D01*
G01*
X92640000Y-164260000D01*
G75*
G02*
X92340000Y-164560000I-300000J0D01*
G01*
X90540000Y-164560000D01*
G75*
G02*
X90240000Y-164260000I0J300000D01*
G01*
G37*
D10*
X91440000Y-157480000D03*
%TD*%
%TO.C,J1*%
G36*
G01*
X54680000Y-152860000D02*
X54680000Y-152260000D01*
G75*
G02*
X54980000Y-151960000I300000J0D01*
G01*
X56780000Y-151960000D01*
G75*
G02*
X57080000Y-152260000I0J-300000D01*
G01*
X57080000Y-152860000D01*
G75*
G02*
X56780000Y-153160000I-300000J0D01*
G01*
X54980000Y-153160000D01*
G75*
G02*
X54680000Y-152860000I0J300000D01*
G01*
G37*
G36*
G01*
X54680000Y-161160000D02*
X54680000Y-160560000D01*
G75*
G02*
X54980000Y-160260000I300000J0D01*
G01*
X56780000Y-160260000D01*
G75*
G02*
X57080000Y-160560000I0J-300000D01*
G01*
X57080000Y-161160000D01*
G75*
G02*
X56780000Y-161460000I-300000J0D01*
G01*
X54980000Y-161460000D01*
G75*
G02*
X54680000Y-161160000I0J300000D01*
G01*
G37*
G36*
G01*
X54680000Y-164260000D02*
X54680000Y-163660000D01*
G75*
G02*
X54980000Y-163360000I300000J0D01*
G01*
X56780000Y-163360000D01*
G75*
G02*
X57080000Y-163660000I0J-300000D01*
G01*
X57080000Y-164260000D01*
G75*
G02*
X56780000Y-164560000I-300000J0D01*
G01*
X54980000Y-164560000D01*
G75*
G02*
X54680000Y-164260000I0J300000D01*
G01*
G37*
X55880000Y-157480000D03*
%TD*%
D11*
%TO.C,J8*%
X82550000Y-86360000D03*
X80010000Y-86360000D03*
X77470000Y-86360000D03*
X74930000Y-86360000D03*
X72390000Y-86360000D03*
X69850000Y-86360000D03*
X67310000Y-86360000D03*
D12*
X64770000Y-86360000D03*
%TD*%
D13*
%TO.C,RV1*%
X68860000Y-124580000D03*
X78460000Y-124580000D03*
D14*
X76160000Y-132080000D03*
X73660000Y-132080000D03*
D15*
X71160000Y-132080000D03*
%TD*%
D16*
%TO.C,SW3*%
X86360000Y-109220000D03*
D17*
X88860000Y-109220000D03*
X91360000Y-109220000D03*
D18*
X83260000Y-101720000D03*
X94460000Y-101720000D03*
D17*
X86360000Y-94720000D03*
X91360000Y-94720000D03*
%TD*%
D16*
%TO.C,SW2*%
X71160000Y-109132663D03*
D17*
X73660000Y-109132663D03*
X76160000Y-109132663D03*
D18*
X68060000Y-101632663D03*
X79260000Y-101632663D03*
D17*
X71160000Y-94632663D03*
X76160000Y-94632663D03*
%TD*%
D19*
%TO.C,U1*%
X78740000Y-76200000D03*
X78740000Y-78740000D03*
D20*
X78740000Y-81280000D03*
%TD*%
D21*
%TO.C,J6*%
X92710000Y-66040000D03*
X92710000Y-68580000D03*
X92710000Y-71120000D03*
X92710000Y-73660000D03*
X92710000Y-76200000D03*
X92710000Y-78740000D03*
X92710000Y-81280000D03*
X92710000Y-83820000D03*
X90170000Y-66040000D03*
X90170000Y-68580000D03*
X90170000Y-71120000D03*
X90170000Y-73660000D03*
X90170000Y-76200000D03*
X90170000Y-78740000D03*
X90170000Y-81280000D03*
G36*
G01*
X89320000Y-84420000D02*
X89320000Y-83220000D01*
G75*
G02*
X89570000Y-82970000I250000J0D01*
G01*
X90770000Y-82970000D01*
G75*
G02*
X91020000Y-83220000I0J-250000D01*
G01*
X91020000Y-84420000D01*
G75*
G02*
X90770000Y-84670000I-250000J0D01*
G01*
X89570000Y-84670000D01*
G75*
G02*
X89320000Y-84420000I0J250000D01*
G01*
G37*
%TD*%
D17*
%TO.C,SW4*%
X93693545Y-127683950D03*
X89193545Y-127683950D03*
X93693545Y-121183950D03*
X89193545Y-121183950D03*
%TD*%
D16*
%TO.C,SW1*%
X55880000Y-109220000D03*
D17*
X58380000Y-109220000D03*
X60880000Y-109220000D03*
D18*
X52780000Y-101720000D03*
X63980000Y-101720000D03*
D17*
X55880000Y-94720000D03*
X60880000Y-94720000D03*
%TD*%
D22*
%TO.C,A1*%
X81280000Y-113030000D03*
X66040000Y-113030000D03*
X81280000Y-148590000D03*
X66040000Y-115570000D03*
X81280000Y-146050000D03*
X66040000Y-118110000D03*
X81280000Y-143510000D03*
X66040000Y-120650000D03*
X81280000Y-140970000D03*
X66040000Y-123190000D03*
X81280000Y-138430000D03*
X66040000Y-125730000D03*
X81280000Y-135890000D03*
X66040000Y-128270000D03*
X81280000Y-133350000D03*
X66040000Y-130810000D03*
X81280000Y-130810000D03*
X66040000Y-133350000D03*
X81280000Y-128270000D03*
X66040000Y-135890000D03*
X81280000Y-125730000D03*
X66040000Y-138430000D03*
X81280000Y-123190000D03*
X66040000Y-140970000D03*
X81280000Y-120650000D03*
X66040000Y-143510000D03*
X81280000Y-118110000D03*
X66040000Y-146050000D03*
X81280000Y-115570000D03*
D23*
X66040000Y-148590000D03*
%TD*%
%TO.C,J7*%
G36*
G01*
X54680000Y-137620000D02*
X54680000Y-137020000D01*
G75*
G02*
X54980000Y-136720000I300000J0D01*
G01*
X56780000Y-136720000D01*
G75*
G02*
X57080000Y-137020000I0J-300000D01*
G01*
X57080000Y-137620000D01*
G75*
G02*
X56780000Y-137920000I-300000J0D01*
G01*
X54980000Y-137920000D01*
G75*
G02*
X54680000Y-137620000I0J300000D01*
G01*
G37*
G36*
G01*
X54680000Y-145920000D02*
X54680000Y-145320000D01*
G75*
G02*
X54980000Y-145020000I300000J0D01*
G01*
X56780000Y-145020000D01*
G75*
G02*
X57080000Y-145320000I0J-300000D01*
G01*
X57080000Y-145920000D01*
G75*
G02*
X56780000Y-146220000I-300000J0D01*
G01*
X54980000Y-146220000D01*
G75*
G02*
X54680000Y-145920000I0J300000D01*
G01*
G37*
G36*
G01*
X54680000Y-149020000D02*
X54680000Y-148420000D01*
G75*
G02*
X54980000Y-148120000I300000J0D01*
G01*
X56780000Y-148120000D01*
G75*
G02*
X57080000Y-148420000I0J-300000D01*
G01*
X57080000Y-149020000D01*
G75*
G02*
X56780000Y-149320000I-300000J0D01*
G01*
X54980000Y-149320000D01*
G75*
G02*
X54680000Y-149020000I0J300000D01*
G01*
G37*
D10*
X55880000Y-142240000D03*
%TD*%
%TO.C,J3*%
G36*
G01*
X78810000Y-152860000D02*
X78810000Y-152260000D01*
G75*
G02*
X79110000Y-151960000I300000J0D01*
G01*
X80910000Y-151960000D01*
G75*
G02*
X81210000Y-152260000I0J-300000D01*
G01*
X81210000Y-152860000D01*
G75*
G02*
X80910000Y-153160000I-300000J0D01*
G01*
X79110000Y-153160000D01*
G75*
G02*
X78810000Y-152860000I0J300000D01*
G01*
G37*
G36*
G01*
X78810000Y-161160000D02*
X78810000Y-160560000D01*
G75*
G02*
X79110000Y-160260000I300000J0D01*
G01*
X80910000Y-160260000D01*
G75*
G02*
X81210000Y-160560000I0J-300000D01*
G01*
X81210000Y-161160000D01*
G75*
G02*
X80910000Y-161460000I-300000J0D01*
G01*
X79110000Y-161460000D01*
G75*
G02*
X78810000Y-161160000I0J300000D01*
G01*
G37*
G36*
G01*
X78810000Y-164260000D02*
X78810000Y-163660000D01*
G75*
G02*
X79110000Y-163360000I300000J0D01*
G01*
X80910000Y-163360000D01*
G75*
G02*
X81210000Y-163660000I0J-300000D01*
G01*
X81210000Y-164260000D01*
G75*
G02*
X80910000Y-164560000I-300000J0D01*
G01*
X79110000Y-164560000D01*
G75*
G02*
X78810000Y-164260000I0J300000D01*
G01*
G37*
X80010000Y-157480000D03*
%TD*%
D11*
%TO.C,J11*%
X64770000Y-62230000D03*
X67310000Y-62230000D03*
X69850000Y-62230000D03*
X72390000Y-62230000D03*
X74930000Y-62230000D03*
X77470000Y-62230000D03*
X80010000Y-62230000D03*
D12*
X82550000Y-62230000D03*
%TD*%
%TO.C,J5*%
G36*
G01*
X66110000Y-152860000D02*
X66110000Y-152260000D01*
G75*
G02*
X66410000Y-151960000I300000J0D01*
G01*
X68210000Y-151960000D01*
G75*
G02*
X68510000Y-152260000I0J-300000D01*
G01*
X68510000Y-152860000D01*
G75*
G02*
X68210000Y-153160000I-300000J0D01*
G01*
X66410000Y-153160000D01*
G75*
G02*
X66110000Y-152860000I0J300000D01*
G01*
G37*
G36*
G01*
X66110000Y-161160000D02*
X66110000Y-160560000D01*
G75*
G02*
X66410000Y-160260000I300000J0D01*
G01*
X68210000Y-160260000D01*
G75*
G02*
X68510000Y-160560000I0J-300000D01*
G01*
X68510000Y-161160000D01*
G75*
G02*
X68210000Y-161460000I-300000J0D01*
G01*
X66410000Y-161460000D01*
G75*
G02*
X66110000Y-161160000I0J300000D01*
G01*
G37*
G36*
G01*
X66110000Y-164260000D02*
X66110000Y-163660000D01*
G75*
G02*
X66410000Y-163360000I300000J0D01*
G01*
X68210000Y-163360000D01*
G75*
G02*
X68510000Y-163660000I0J-300000D01*
G01*
X68510000Y-164260000D01*
G75*
G02*
X68210000Y-164560000I-300000J0D01*
G01*
X66410000Y-164560000D01*
G75*
G02*
X66110000Y-164260000I0J300000D01*
G01*
G37*
D10*
X67310000Y-157480000D03*
%TD*%
D14*
%TO.C,D2*%
X57150000Y-124460000D03*
D15*
X54610000Y-124460000D03*
%TD*%
%TO.C,J4*%
G36*
G01*
X90240000Y-137620000D02*
X90240000Y-137020000D01*
G75*
G02*
X90540000Y-136720000I300000J0D01*
G01*
X92340000Y-136720000D01*
G75*
G02*
X92640000Y-137020000I0J-300000D01*
G01*
X92640000Y-137620000D01*
G75*
G02*
X92340000Y-137920000I-300000J0D01*
G01*
X90540000Y-137920000D01*
G75*
G02*
X90240000Y-137620000I0J300000D01*
G01*
G37*
G36*
G01*
X90240000Y-145920000D02*
X90240000Y-145320000D01*
G75*
G02*
X90540000Y-145020000I300000J0D01*
G01*
X92340000Y-145020000D01*
G75*
G02*
X92640000Y-145320000I0J-300000D01*
G01*
X92640000Y-145920000D01*
G75*
G02*
X92340000Y-146220000I-300000J0D01*
G01*
X90540000Y-146220000D01*
G75*
G02*
X90240000Y-145920000I0J300000D01*
G01*
G37*
G36*
G01*
X90240000Y-149020000D02*
X90240000Y-148420000D01*
G75*
G02*
X90540000Y-148120000I300000J0D01*
G01*
X92340000Y-148120000D01*
G75*
G02*
X92640000Y-148420000I0J-300000D01*
G01*
X92640000Y-149020000D01*
G75*
G02*
X92340000Y-149320000I-300000J0D01*
G01*
X90540000Y-149320000D01*
G75*
G02*
X90240000Y-149020000I0J300000D01*
G01*
G37*
D10*
X91440000Y-142240000D03*
%TD*%
M02*
