%TF.GenerationSoftware,KiCad,Pcbnew,(5.1.10)-1*%
%TF.CreationDate,2022-04-24T20:33:29+02:00*%
%TF.ProjectId,eugenio,65756765-6e69-46f2-9e6b-696361645f70,rev?*%
%TF.SameCoordinates,Original*%
%TF.FileFunction,Legend,Bot*%
%TF.FilePolarity,Positive*%
%FSLAX46Y46*%
G04 Gerber Fmt 4.6, Leading zero omitted, Abs format (unit mm)*
G04 Created by KiCad (PCBNEW (5.1.10)-1) date 2022-04-24 20:33:29*
%MOMM*%
%LPD*%
G01*
G04 APERTURE LIST*
%ADD10C,0.120000*%
%ADD11C,0.150000*%
G04 APERTURE END LIST*
D10*
%TO.C,U1*%
X82010000Y-83860000D02*
X82010000Y-73620000D01*
X77369000Y-83860000D02*
X77369000Y-73620000D01*
X82010000Y-83860000D02*
X77369000Y-83860000D01*
X82010000Y-73620000D02*
X77369000Y-73620000D01*
X80500000Y-83860000D02*
X80500000Y-73620000D01*
X82010000Y-80590000D02*
X80500000Y-80590000D01*
X82010000Y-76889000D02*
X80500000Y-76889000D01*
%TO.C,J6*%
X86880000Y-89030000D02*
X96000000Y-89030000D01*
X96000000Y-89030000D02*
X96000000Y-60830000D01*
X96000000Y-60830000D02*
X86880000Y-60830000D01*
X86880000Y-60830000D02*
X86880000Y-89030000D01*
X86880000Y-76980000D02*
X88190000Y-76980000D01*
X88190000Y-76980000D02*
X88190000Y-87730000D01*
X88190000Y-87730000D02*
X94690000Y-87730000D01*
X94690000Y-87730000D02*
X94690000Y-62130000D01*
X94690000Y-62130000D02*
X88190000Y-62130000D01*
X88190000Y-62130000D02*
X88190000Y-72880000D01*
X88190000Y-72880000D02*
X88190000Y-72880000D01*
X88190000Y-72880000D02*
X86880000Y-72880000D01*
X86490000Y-83820000D02*
X85490000Y-84320000D01*
X85490000Y-84320000D02*
X85490000Y-83320000D01*
X85490000Y-83320000D02*
X86490000Y-83820000D01*
%TO.C,A1*%
X67310000Y-147320000D02*
X67310000Y-149860000D01*
X67310000Y-149860000D02*
X64640000Y-149860000D01*
X64640000Y-147320000D02*
X64640000Y-109090000D01*
X64640000Y-152530000D02*
X64640000Y-149860000D01*
X80010000Y-149860000D02*
X82680000Y-149860000D01*
X80010000Y-149860000D02*
X80010000Y-111760000D01*
X80010000Y-111760000D02*
X82680000Y-111760000D01*
X67310000Y-147320000D02*
X64640000Y-147320000D01*
X67310000Y-147320000D02*
X67310000Y-111760000D01*
X67310000Y-111760000D02*
X64640000Y-111760000D01*
X64640000Y-109090000D02*
X82680000Y-109090000D01*
X82680000Y-109090000D02*
X82680000Y-152530000D01*
X82680000Y-152530000D02*
X64640000Y-152530000D01*
%TO.C,U1*%
D11*
X82462380Y-77978095D02*
X83271904Y-77978095D01*
X83367142Y-78025714D01*
X83414761Y-78073333D01*
X83462380Y-78168571D01*
X83462380Y-78359047D01*
X83414761Y-78454285D01*
X83367142Y-78501904D01*
X83271904Y-78549523D01*
X82462380Y-78549523D01*
X83462380Y-79549523D02*
X83462380Y-78978095D01*
X83462380Y-79263809D02*
X82462380Y-79263809D01*
X82605238Y-79168571D01*
X82700476Y-79073333D01*
X82748095Y-78978095D01*
%TO.C,J6*%
X91773333Y-89372380D02*
X91773333Y-90086666D01*
X91820952Y-90229523D01*
X91916190Y-90324761D01*
X92059047Y-90372380D01*
X92154285Y-90372380D01*
X90868571Y-89372380D02*
X91059047Y-89372380D01*
X91154285Y-89420000D01*
X91201904Y-89467619D01*
X91297142Y-89610476D01*
X91344761Y-89800952D01*
X91344761Y-90181904D01*
X91297142Y-90277142D01*
X91249523Y-90324761D01*
X91154285Y-90372380D01*
X90963809Y-90372380D01*
X90868571Y-90324761D01*
X90820952Y-90277142D01*
X90773333Y-90181904D01*
X90773333Y-89943809D01*
X90820952Y-89848571D01*
X90868571Y-89800952D01*
X90963809Y-89753333D01*
X91154285Y-89753333D01*
X91249523Y-89800952D01*
X91297142Y-89848571D01*
X91344761Y-89943809D01*
%TO.C,A1*%
X74374285Y-153836666D02*
X73898095Y-153836666D01*
X74469523Y-154122380D02*
X74136190Y-153122380D01*
X73802857Y-154122380D01*
X72945714Y-154122380D02*
X73517142Y-154122380D01*
X73231428Y-154122380D02*
X73231428Y-153122380D01*
X73326666Y-153265238D01*
X73421904Y-153360476D01*
X73517142Y-153408095D01*
%TD*%
M02*
