%TF.GenerationSoftware,KiCad,Pcbnew,(5.1.10)-1*%
%TF.CreationDate,2022-04-24T20:33:29+02:00*%
%TF.ProjectId,eugenio,65756765-6e69-46f2-9e6b-696361645f70,rev?*%
%TF.SameCoordinates,Original*%
%TF.FileFunction,Legend,Top*%
%TF.FilePolarity,Positive*%
%FSLAX46Y46*%
G04 Gerber Fmt 4.6, Leading zero omitted, Abs format (unit mm)*
G04 Created by KiCad (PCBNEW (5.1.10)-1) date 2022-04-24 20:33:29*
%MOMM*%
%LPD*%
G01*
G04 APERTURE LIST*
%ADD10C,0.200000*%
%ADD11C,0.120000*%
%ADD12C,0.150000*%
G04 APERTURE END LIST*
D10*
%TO.C,J2*%
X86940000Y-151480000D02*
X86940000Y-161980000D01*
X86940000Y-161980000D02*
X95940000Y-161980000D01*
X95940000Y-161980000D02*
X95940000Y-151480000D01*
X95940000Y-151480000D02*
X86940000Y-151480000D01*
%TO.C,J1*%
X60380000Y-151480000D02*
X51380000Y-151480000D01*
X60380000Y-161980000D02*
X60380000Y-151480000D01*
X51380000Y-161980000D02*
X60380000Y-161980000D01*
X51380000Y-151480000D02*
X51380000Y-161980000D01*
D11*
%TO.C,U2*%
X66040000Y-65215000D02*
X62180000Y-65215000D01*
X62180000Y-65215000D02*
X62180000Y-65505000D01*
X66040000Y-65215000D02*
X69900000Y-65215000D01*
X69900000Y-65215000D02*
X69900000Y-65505000D01*
X66040000Y-80835000D02*
X62180000Y-80835000D01*
X62180000Y-80835000D02*
X62180000Y-80545000D01*
X66040000Y-80835000D02*
X69900000Y-80835000D01*
X69900000Y-80835000D02*
X69900000Y-80545000D01*
X69900000Y-80545000D02*
X71690000Y-80545000D01*
%TO.C,J8*%
X66040000Y-87690000D02*
X66040000Y-85030000D01*
X66040000Y-87690000D02*
X83880000Y-87690000D01*
X83880000Y-87690000D02*
X83880000Y-85030000D01*
X66040000Y-85030000D02*
X83880000Y-85030000D01*
X63440000Y-85030000D02*
X64770000Y-85030000D01*
X63440000Y-86360000D02*
X63440000Y-85030000D01*
%TO.C,C3*%
X84555000Y-143248748D02*
X84555000Y-143771252D01*
X83085000Y-143248748D02*
X83085000Y-143771252D01*
%TO.C,R24*%
X53924564Y-120115000D02*
X53470436Y-120115000D01*
X53924564Y-118645000D02*
X53470436Y-118645000D01*
%TO.C,R22*%
X69622936Y-149125000D02*
X70077064Y-149125000D01*
X69622936Y-150595000D02*
X70077064Y-150595000D01*
%TO.C,RV1*%
X78530000Y-119610000D02*
X68790000Y-119610000D01*
X78530000Y-131200000D02*
X77040000Y-131200000D01*
X78530000Y-122670000D02*
X78530000Y-119610000D01*
X68780000Y-131200000D02*
X68780000Y-126480000D01*
X68790000Y-122670000D02*
X68790000Y-119610000D01*
X78530000Y-131200000D02*
X78530000Y-126480000D01*
X69970000Y-131200000D02*
X68790000Y-131200000D01*
X72870000Y-131200000D02*
X72340000Y-131200000D01*
X75320000Y-131200000D02*
X74490000Y-131200000D01*
%TO.C,R16*%
X76735000Y-146277064D02*
X76735000Y-145822936D01*
X78205000Y-146277064D02*
X78205000Y-145822936D01*
%TO.C,R15*%
X77697064Y-150595000D02*
X77242936Y-150595000D01*
X77697064Y-149125000D02*
X77242936Y-149125000D01*
%TO.C,D1*%
X92895000Y-130635000D02*
X92895000Y-134720000D01*
X92895000Y-134720000D02*
X95065000Y-134720000D01*
X95065000Y-134720000D02*
X95065000Y-130635000D01*
%TO.C,D5*%
X85420000Y-77655000D02*
X81335000Y-77655000D01*
X81335000Y-77655000D02*
X81335000Y-79825000D01*
X81335000Y-79825000D02*
X85420000Y-79825000D01*
%TO.C,SW3*%
X88860000Y-102220000D02*
X88860000Y-101220000D01*
X88360000Y-101720000D02*
X89360000Y-101720000D01*
X92360000Y-95620000D02*
X94760000Y-95620000D01*
X87560000Y-95620000D02*
X90160000Y-95620000D01*
X82960000Y-95620000D02*
X85360000Y-95620000D01*
X84760000Y-108920000D02*
X85060000Y-109220000D01*
X84760000Y-109520000D02*
X84760000Y-108920000D01*
X85060000Y-109220000D02*
X84760000Y-109520000D01*
X82960000Y-107820000D02*
X94760000Y-107820000D01*
X82960000Y-103720000D02*
X82960000Y-107820000D01*
X94760000Y-103720000D02*
X94760000Y-107820000D01*
X94760000Y-95620000D02*
X94760000Y-99720000D01*
X82960000Y-99720000D02*
X82960000Y-95620000D01*
X91860000Y-101720000D02*
G75*
G03*
X91860000Y-101720000I-3000000J0D01*
G01*
%TO.C,D4*%
X61445000Y-132265000D02*
X57360000Y-132265000D01*
X57360000Y-132265000D02*
X57360000Y-134435000D01*
X57360000Y-134435000D02*
X61445000Y-134435000D01*
%TO.C,SW2*%
X73660000Y-102132663D02*
X73660000Y-101132663D01*
X73160000Y-101632663D02*
X74160000Y-101632663D01*
X77160000Y-95532663D02*
X79560000Y-95532663D01*
X72360000Y-95532663D02*
X74960000Y-95532663D01*
X67760000Y-95532663D02*
X70160000Y-95532663D01*
X69560000Y-108832663D02*
X69860000Y-109132663D01*
X69560000Y-109432663D02*
X69560000Y-108832663D01*
X69860000Y-109132663D02*
X69560000Y-109432663D01*
X67760000Y-107732663D02*
X79560000Y-107732663D01*
X67760000Y-103632663D02*
X67760000Y-107732663D01*
X79560000Y-103632663D02*
X79560000Y-107732663D01*
X79560000Y-95532663D02*
X79560000Y-99632663D01*
X67760000Y-99632663D02*
X67760000Y-95532663D01*
X76660000Y-101632663D02*
G75*
G03*
X76660000Y-101632663I-3000000J0D01*
G01*
%TO.C,R25*%
X53470436Y-114835000D02*
X53924564Y-114835000D01*
X53470436Y-116305000D02*
X53924564Y-116305000D01*
%TO.C,C1*%
X81815000Y-82811252D02*
X81815000Y-82288748D01*
X83285000Y-82811252D02*
X83285000Y-82288748D01*
%TO.C,C2*%
X83285000Y-74668748D02*
X83285000Y-75191252D01*
X81815000Y-74668748D02*
X81815000Y-75191252D01*
%TO.C,C4*%
X78030000Y-141190000D02*
X78030000Y-139490000D01*
X78030000Y-135670000D02*
X78030000Y-137370000D01*
X73574437Y-135670000D02*
X78030000Y-135670000D01*
X73574437Y-141190000D02*
X78030000Y-141190000D01*
X72510000Y-140125563D02*
X72510000Y-139490000D01*
X72510000Y-136734437D02*
X72510000Y-137370000D01*
X72510000Y-136734437D02*
X73574437Y-135670000D01*
X72510000Y-140125563D02*
X73574437Y-141190000D01*
X71645000Y-136745000D02*
X72270000Y-136745000D01*
X71957500Y-136432500D02*
X71957500Y-137057500D01*
%TO.C,R27*%
X59105436Y-128805000D02*
X59559564Y-128805000D01*
X59105436Y-130275000D02*
X59559564Y-130275000D01*
%TO.C,C8*%
X83085000Y-68841252D02*
X83085000Y-68318748D01*
X84555000Y-68841252D02*
X84555000Y-68318748D01*
%TO.C,R28*%
X56010436Y-70385000D02*
X56464564Y-70385000D01*
X56010436Y-71855000D02*
X56464564Y-71855000D01*
%TO.C,C7*%
X51850000Y-83700000D02*
X53550000Y-83700000D01*
X57370000Y-83700000D02*
X55670000Y-83700000D01*
X57370000Y-79244437D02*
X57370000Y-83700000D01*
X51850000Y-79244437D02*
X51850000Y-83700000D01*
X52914437Y-78180000D02*
X53550000Y-78180000D01*
X56305563Y-78180000D02*
X55670000Y-78180000D01*
X56305563Y-78180000D02*
X57370000Y-79244437D01*
X52914437Y-78180000D02*
X51850000Y-79244437D01*
X56295000Y-77315000D02*
X56295000Y-77940000D01*
X56607500Y-77627500D02*
X55982500Y-77627500D01*
%TO.C,SW4*%
X88193545Y-122183950D02*
X88193545Y-126683950D01*
X92193545Y-120933950D02*
X90693545Y-120933950D01*
X94693545Y-126683950D02*
X94693545Y-122183950D01*
X90693545Y-127933950D02*
X92193545Y-127933950D01*
%TO.C,R26*%
X54479564Y-134085000D02*
X54025436Y-134085000D01*
X54479564Y-132615000D02*
X54025436Y-132615000D01*
%TO.C,R20*%
X90754564Y-134085000D02*
X90300436Y-134085000D01*
X90754564Y-132615000D02*
X90300436Y-132615000D01*
%TO.C,R19*%
X84959564Y-126465000D02*
X84505436Y-126465000D01*
X84959564Y-124995000D02*
X84505436Y-124995000D01*
%TO.C,C6*%
X56461252Y-74395000D02*
X55938748Y-74395000D01*
X56461252Y-72925000D02*
X55938748Y-72925000D01*
%TO.C,SW1*%
X58380000Y-102220000D02*
X58380000Y-101220000D01*
X57880000Y-101720000D02*
X58880000Y-101720000D01*
X61880000Y-95620000D02*
X64280000Y-95620000D01*
X57080000Y-95620000D02*
X59680000Y-95620000D01*
X52480000Y-95620000D02*
X54880000Y-95620000D01*
X54280000Y-108920000D02*
X54580000Y-109220000D01*
X54280000Y-109520000D02*
X54280000Y-108920000D01*
X54580000Y-109220000D02*
X54280000Y-109520000D01*
X52480000Y-107820000D02*
X64280000Y-107820000D01*
X52480000Y-103720000D02*
X52480000Y-107820000D01*
X64280000Y-103720000D02*
X64280000Y-107820000D01*
X64280000Y-95620000D02*
X64280000Y-99720000D01*
X52480000Y-99720000D02*
X52480000Y-95620000D01*
X61380000Y-101720000D02*
G75*
G03*
X61380000Y-101720000I-3000000J0D01*
G01*
%TO.C,R23*%
X69115000Y-146277064D02*
X69115000Y-145822936D01*
X70585000Y-146277064D02*
X70585000Y-145822936D01*
%TO.C,R21*%
X90300436Y-130075000D02*
X90754564Y-130075000D01*
X90300436Y-131545000D02*
X90754564Y-131545000D01*
%TO.C,D3*%
X85275000Y-65710000D02*
X85275000Y-69795000D01*
X85275000Y-69795000D02*
X87445000Y-69795000D01*
X87445000Y-69795000D02*
X87445000Y-65710000D01*
%TO.C,R14*%
X84959564Y-129005000D02*
X84505436Y-129005000D01*
X84959564Y-127535000D02*
X84505436Y-127535000D01*
%TO.C,R18*%
X93245000Y-117424564D02*
X93245000Y-116970436D01*
X94715000Y-117424564D02*
X94715000Y-116970436D01*
%TO.C,R6*%
X54837064Y-92175000D02*
X54382936Y-92175000D01*
X54837064Y-90705000D02*
X54382936Y-90705000D01*
%TO.C,Q2*%
X73170000Y-112720000D02*
X73170000Y-113650000D01*
X73170000Y-115880000D02*
X73170000Y-114950000D01*
X73170000Y-115880000D02*
X75330000Y-115880000D01*
X73170000Y-112720000D02*
X74630000Y-112720000D01*
%TO.C,C5*%
X81500000Y-66160000D02*
X79800000Y-66160000D01*
X75980000Y-66160000D02*
X77680000Y-66160000D01*
X75980000Y-70615563D02*
X75980000Y-66160000D01*
X81500000Y-70615563D02*
X81500000Y-66160000D01*
X80435563Y-71680000D02*
X79800000Y-71680000D01*
X77044437Y-71680000D02*
X77680000Y-71680000D01*
X77044437Y-71680000D02*
X75980000Y-70615563D01*
X80435563Y-71680000D02*
X81500000Y-70615563D01*
X77055000Y-72545000D02*
X77055000Y-71920000D01*
X76742500Y-72232500D02*
X77367500Y-72232500D01*
%TO.C,R17*%
X86490436Y-112295000D02*
X86944564Y-112295000D01*
X86490436Y-113765000D02*
X86944564Y-113765000D01*
D10*
%TO.C,J7*%
X51380000Y-136240000D02*
X51380000Y-146740000D01*
X51380000Y-146740000D02*
X60380000Y-146740000D01*
X60380000Y-146740000D02*
X60380000Y-136240000D01*
X60380000Y-136240000D02*
X51380000Y-136240000D01*
D11*
%TO.C,Q4*%
X60200000Y-120340000D02*
X60200000Y-121270000D01*
X60200000Y-123500000D02*
X60200000Y-122570000D01*
X60200000Y-123500000D02*
X62360000Y-123500000D01*
X60200000Y-120340000D02*
X61660000Y-120340000D01*
%TO.C,R12*%
X90300436Y-90705000D02*
X90754564Y-90705000D01*
X90300436Y-92175000D02*
X90754564Y-92175000D01*
D10*
%TO.C,J3*%
X75510000Y-151480000D02*
X75510000Y-161980000D01*
X75510000Y-161980000D02*
X84510000Y-161980000D01*
X84510000Y-161980000D02*
X84510000Y-151480000D01*
X84510000Y-151480000D02*
X75510000Y-151480000D01*
D11*
%TO.C,J11*%
X81280000Y-60900000D02*
X81280000Y-63560000D01*
X81280000Y-60900000D02*
X63440000Y-60900000D01*
X63440000Y-60900000D02*
X63440000Y-63560000D01*
X81280000Y-63560000D02*
X63440000Y-63560000D01*
X83880000Y-63560000D02*
X82550000Y-63560000D01*
X83880000Y-62230000D02*
X83880000Y-63560000D01*
%TO.C,Q5*%
X91930000Y-116200000D02*
X91930000Y-115270000D01*
X91930000Y-113040000D02*
X91930000Y-113970000D01*
X91930000Y-113040000D02*
X89770000Y-113040000D01*
X91930000Y-116200000D02*
X90470000Y-116200000D01*
%TO.C,Q3*%
X72900000Y-144470000D02*
X72900000Y-145400000D01*
X72900000Y-147630000D02*
X72900000Y-146700000D01*
X72900000Y-147630000D02*
X75060000Y-147630000D01*
X72900000Y-144470000D02*
X74360000Y-144470000D01*
%TO.C,R1*%
X84505436Y-119915000D02*
X84959564Y-119915000D01*
X84505436Y-121385000D02*
X84959564Y-121385000D01*
%TO.C,R11*%
X79324564Y-92175000D02*
X78870436Y-92175000D01*
X79324564Y-90705000D02*
X78870436Y-90705000D01*
%TO.C,Q1*%
X84600000Y-132090000D02*
X84600000Y-133020000D01*
X84600000Y-135250000D02*
X84600000Y-134320000D01*
X84600000Y-135250000D02*
X86760000Y-135250000D01*
X84600000Y-132090000D02*
X86060000Y-132090000D01*
%TO.C,FB2*%
X86197221Y-73150000D02*
X86522779Y-73150000D01*
X86197221Y-74170000D02*
X86522779Y-74170000D01*
%TO.C,FB1*%
X86197221Y-71630000D02*
X86522779Y-71630000D01*
X86197221Y-70610000D02*
X86522779Y-70610000D01*
%TO.C,R13*%
X69980436Y-135155000D02*
X70434564Y-135155000D01*
X69980436Y-136625000D02*
X70434564Y-136625000D01*
%TO.C,R10*%
X83085000Y-148817064D02*
X83085000Y-148362936D01*
X84555000Y-148817064D02*
X84555000Y-148362936D01*
%TO.C,J10*%
X73530000Y-77770000D02*
X73530000Y-77170000D01*
X75630000Y-78470000D02*
X74230000Y-78470000D01*
X76330000Y-77170000D02*
X76330000Y-77770000D01*
X74230000Y-76470000D02*
X75630000Y-76470000D01*
X73530000Y-77170000D02*
G75*
G02*
X74230000Y-76470000I700000J0D01*
G01*
X74230000Y-78470000D02*
G75*
G02*
X73530000Y-77770000I0J700000D01*
G01*
X76330000Y-77770000D02*
G75*
G02*
X75630000Y-78470000I-700000J0D01*
G01*
X75630000Y-76470000D02*
G75*
G02*
X76330000Y-77170000I0J-700000D01*
G01*
%TO.C,J9*%
X73530000Y-75230000D02*
X73530000Y-74630000D01*
X75630000Y-75930000D02*
X74230000Y-75930000D01*
X76330000Y-74630000D02*
X76330000Y-75230000D01*
X74230000Y-73930000D02*
X75630000Y-73930000D01*
X73530000Y-74630000D02*
G75*
G02*
X74230000Y-73930000I700000J0D01*
G01*
X74230000Y-75930000D02*
G75*
G02*
X73530000Y-75230000I0J700000D01*
G01*
X76330000Y-75230000D02*
G75*
G02*
X75630000Y-75930000I-700000J0D01*
G01*
X75630000Y-73930000D02*
G75*
G02*
X76330000Y-74630000I0J-700000D01*
G01*
%TO.C,R8*%
X77600436Y-112295000D02*
X78054564Y-112295000D01*
X77600436Y-113765000D02*
X78054564Y-113765000D01*
%TO.C,R7*%
X66624564Y-92175000D02*
X66170436Y-92175000D01*
X66624564Y-90705000D02*
X66170436Y-90705000D01*
%TO.C,R4*%
X59820436Y-149125000D02*
X60274564Y-149125000D01*
X59820436Y-150595000D02*
X60274564Y-150595000D01*
D10*
%TO.C,J5*%
X71810000Y-151480000D02*
X62810000Y-151480000D01*
X71810000Y-161980000D02*
X71810000Y-151480000D01*
X62810000Y-161980000D02*
X71810000Y-161980000D01*
X62810000Y-151480000D02*
X62810000Y-161980000D01*
D11*
%TO.C,D2*%
X54320000Y-125540000D02*
X54320000Y-125696000D01*
X54320000Y-123224000D02*
X54320000Y-123380000D01*
X56921130Y-125539837D02*
G75*
G02*
X54839039Y-125540000I-1041130J1079837D01*
G01*
X56921130Y-123380163D02*
G75*
G03*
X54839039Y-123380000I-1041130J-1079837D01*
G01*
X57552335Y-125538608D02*
G75*
G02*
X54320000Y-125695516I-1672335J1078608D01*
G01*
X57552335Y-123381392D02*
G75*
G03*
X54320000Y-123224484I-1672335J-1078608D01*
G01*
%TO.C,R5*%
X61495000Y-146277064D02*
X61495000Y-145822936D01*
X62965000Y-146277064D02*
X62965000Y-145822936D01*
%TO.C,R3*%
X84959564Y-123925000D02*
X84505436Y-123925000D01*
X84959564Y-122455000D02*
X84505436Y-122455000D01*
%TO.C,Q6*%
X56660000Y-116530000D02*
X56660000Y-117460000D01*
X56660000Y-119690000D02*
X56660000Y-118760000D01*
X56660000Y-119690000D02*
X58820000Y-119690000D01*
X56660000Y-116530000D02*
X58120000Y-116530000D01*
D10*
%TO.C,J4*%
X95940000Y-136240000D02*
X86940000Y-136240000D01*
X95940000Y-146740000D02*
X95940000Y-136240000D01*
X86940000Y-146740000D02*
X95940000Y-146740000D01*
X86940000Y-136240000D02*
X86940000Y-146740000D01*
D11*
%TO.C,R9*%
X87499564Y-150595000D02*
X87045436Y-150595000D01*
X87499564Y-149125000D02*
X87045436Y-149125000D01*
%TO.C,J2*%
D12*
X91106666Y-164832380D02*
X91106666Y-165546666D01*
X91059047Y-165689523D01*
X90963809Y-165784761D01*
X90820952Y-165832380D01*
X90725714Y-165832380D01*
X91535238Y-164927619D02*
X91582857Y-164880000D01*
X91678095Y-164832380D01*
X91916190Y-164832380D01*
X92011428Y-164880000D01*
X92059047Y-164927619D01*
X92106666Y-165022857D01*
X92106666Y-165118095D01*
X92059047Y-165260952D01*
X91487619Y-165832380D01*
X92106666Y-165832380D01*
%TO.C,J1*%
X55546666Y-164832380D02*
X55546666Y-165546666D01*
X55499047Y-165689523D01*
X55403809Y-165784761D01*
X55260952Y-165832380D01*
X55165714Y-165832380D01*
X56546666Y-165832380D02*
X55975238Y-165832380D01*
X56260952Y-165832380D02*
X56260952Y-164832380D01*
X56165714Y-164975238D01*
X56070476Y-165070476D01*
X55975238Y-165118095D01*
%TO.C,U2*%
X65278095Y-81127380D02*
X65278095Y-81936904D01*
X65325714Y-82032142D01*
X65373333Y-82079761D01*
X65468571Y-82127380D01*
X65659047Y-82127380D01*
X65754285Y-82079761D01*
X65801904Y-82032142D01*
X65849523Y-81936904D01*
X65849523Y-81127380D01*
X66278095Y-81222619D02*
X66325714Y-81175000D01*
X66420952Y-81127380D01*
X66659047Y-81127380D01*
X66754285Y-81175000D01*
X66801904Y-81222619D01*
X66849523Y-81317857D01*
X66849523Y-81413095D01*
X66801904Y-81555952D01*
X66230476Y-82127380D01*
X66849523Y-82127380D01*
%TO.C,J8*%
X61452380Y-86693333D02*
X62166666Y-86693333D01*
X62309523Y-86740952D01*
X62404761Y-86836190D01*
X62452380Y-86979047D01*
X62452380Y-87074285D01*
X61880952Y-86074285D02*
X61833333Y-86169523D01*
X61785714Y-86217142D01*
X61690476Y-86264761D01*
X61642857Y-86264761D01*
X61547619Y-86217142D01*
X61500000Y-86169523D01*
X61452380Y-86074285D01*
X61452380Y-85883809D01*
X61500000Y-85788571D01*
X61547619Y-85740952D01*
X61642857Y-85693333D01*
X61690476Y-85693333D01*
X61785714Y-85740952D01*
X61833333Y-85788571D01*
X61880952Y-85883809D01*
X61880952Y-86074285D01*
X61928571Y-86169523D01*
X61976190Y-86217142D01*
X62071428Y-86264761D01*
X62261904Y-86264761D01*
X62357142Y-86217142D01*
X62404761Y-86169523D01*
X62452380Y-86074285D01*
X62452380Y-85883809D01*
X62404761Y-85788571D01*
X62357142Y-85740952D01*
X62261904Y-85693333D01*
X62071428Y-85693333D01*
X61976190Y-85740952D01*
X61928571Y-85788571D01*
X61880952Y-85883809D01*
%TO.C,C3*%
X85857142Y-143676666D02*
X85904761Y-143724285D01*
X85952380Y-143867142D01*
X85952380Y-143962380D01*
X85904761Y-144105238D01*
X85809523Y-144200476D01*
X85714285Y-144248095D01*
X85523809Y-144295714D01*
X85380952Y-144295714D01*
X85190476Y-144248095D01*
X85095238Y-144200476D01*
X85000000Y-144105238D01*
X84952380Y-143962380D01*
X84952380Y-143867142D01*
X85000000Y-143724285D01*
X85047619Y-143676666D01*
X84952380Y-143343333D02*
X84952380Y-142724285D01*
X85333333Y-143057619D01*
X85333333Y-142914761D01*
X85380952Y-142819523D01*
X85428571Y-142771904D01*
X85523809Y-142724285D01*
X85761904Y-142724285D01*
X85857142Y-142771904D01*
X85904761Y-142819523D01*
X85952380Y-142914761D01*
X85952380Y-143200476D01*
X85904761Y-143295714D01*
X85857142Y-143343333D01*
%TO.C,R24*%
X53054642Y-121482380D02*
X52721309Y-121006190D01*
X52483214Y-121482380D02*
X52483214Y-120482380D01*
X52864166Y-120482380D01*
X52959404Y-120530000D01*
X53007023Y-120577619D01*
X53054642Y-120672857D01*
X53054642Y-120815714D01*
X53007023Y-120910952D01*
X52959404Y-120958571D01*
X52864166Y-121006190D01*
X52483214Y-121006190D01*
X53435595Y-120577619D02*
X53483214Y-120530000D01*
X53578452Y-120482380D01*
X53816547Y-120482380D01*
X53911785Y-120530000D01*
X53959404Y-120577619D01*
X54007023Y-120672857D01*
X54007023Y-120768095D01*
X53959404Y-120910952D01*
X53387976Y-121482380D01*
X54007023Y-121482380D01*
X54864166Y-120815714D02*
X54864166Y-121482380D01*
X54626071Y-120434761D02*
X54387976Y-121149047D01*
X55007023Y-121149047D01*
%TO.C,R22*%
X69207142Y-148662380D02*
X68873809Y-148186190D01*
X68635714Y-148662380D02*
X68635714Y-147662380D01*
X69016666Y-147662380D01*
X69111904Y-147710000D01*
X69159523Y-147757619D01*
X69207142Y-147852857D01*
X69207142Y-147995714D01*
X69159523Y-148090952D01*
X69111904Y-148138571D01*
X69016666Y-148186190D01*
X68635714Y-148186190D01*
X69588095Y-147757619D02*
X69635714Y-147710000D01*
X69730952Y-147662380D01*
X69969047Y-147662380D01*
X70064285Y-147710000D01*
X70111904Y-147757619D01*
X70159523Y-147852857D01*
X70159523Y-147948095D01*
X70111904Y-148090952D01*
X69540476Y-148662380D01*
X70159523Y-148662380D01*
X70540476Y-147757619D02*
X70588095Y-147710000D01*
X70683333Y-147662380D01*
X70921428Y-147662380D01*
X71016666Y-147710000D01*
X71064285Y-147757619D01*
X71111904Y-147852857D01*
X71111904Y-147948095D01*
X71064285Y-148090952D01*
X70492857Y-148662380D01*
X71111904Y-148662380D01*
%TO.C,RV1*%
X66972380Y-125965238D02*
X66496190Y-126298571D01*
X66972380Y-126536666D02*
X65972380Y-126536666D01*
X65972380Y-126155714D01*
X66020000Y-126060476D01*
X66067619Y-126012857D01*
X66162857Y-125965238D01*
X66305714Y-125965238D01*
X66400952Y-126012857D01*
X66448571Y-126060476D01*
X66496190Y-126155714D01*
X66496190Y-126536666D01*
X65972380Y-125679523D02*
X66972380Y-125346190D01*
X65972380Y-125012857D01*
X66972380Y-124155714D02*
X66972380Y-124727142D01*
X66972380Y-124441428D02*
X65972380Y-124441428D01*
X66115238Y-124536666D01*
X66210476Y-124631904D01*
X66258095Y-124727142D01*
%TO.C,R16*%
X76272380Y-146692857D02*
X75796190Y-147026190D01*
X76272380Y-147264285D02*
X75272380Y-147264285D01*
X75272380Y-146883333D01*
X75320000Y-146788095D01*
X75367619Y-146740476D01*
X75462857Y-146692857D01*
X75605714Y-146692857D01*
X75700952Y-146740476D01*
X75748571Y-146788095D01*
X75796190Y-146883333D01*
X75796190Y-147264285D01*
X76272380Y-145740476D02*
X76272380Y-146311904D01*
X76272380Y-146026190D02*
X75272380Y-146026190D01*
X75415238Y-146121428D01*
X75510476Y-146216666D01*
X75558095Y-146311904D01*
X75272380Y-144883333D02*
X75272380Y-145073809D01*
X75320000Y-145169047D01*
X75367619Y-145216666D01*
X75510476Y-145311904D01*
X75700952Y-145359523D01*
X76081904Y-145359523D01*
X76177142Y-145311904D01*
X76224761Y-145264285D01*
X76272380Y-145169047D01*
X76272380Y-144978571D01*
X76224761Y-144883333D01*
X76177142Y-144835714D01*
X76081904Y-144788095D01*
X75843809Y-144788095D01*
X75748571Y-144835714D01*
X75700952Y-144883333D01*
X75653333Y-144978571D01*
X75653333Y-145169047D01*
X75700952Y-145264285D01*
X75748571Y-145311904D01*
X75843809Y-145359523D01*
%TO.C,R15*%
X76827142Y-151962380D02*
X76493809Y-151486190D01*
X76255714Y-151962380D02*
X76255714Y-150962380D01*
X76636666Y-150962380D01*
X76731904Y-151010000D01*
X76779523Y-151057619D01*
X76827142Y-151152857D01*
X76827142Y-151295714D01*
X76779523Y-151390952D01*
X76731904Y-151438571D01*
X76636666Y-151486190D01*
X76255714Y-151486190D01*
X77779523Y-151962380D02*
X77208095Y-151962380D01*
X77493809Y-151962380D02*
X77493809Y-150962380D01*
X77398571Y-151105238D01*
X77303333Y-151200476D01*
X77208095Y-151248095D01*
X78684285Y-150962380D02*
X78208095Y-150962380D01*
X78160476Y-151438571D01*
X78208095Y-151390952D01*
X78303333Y-151343333D01*
X78541428Y-151343333D01*
X78636666Y-151390952D01*
X78684285Y-151438571D01*
X78731904Y-151533809D01*
X78731904Y-151771904D01*
X78684285Y-151867142D01*
X78636666Y-151914761D01*
X78541428Y-151962380D01*
X78303333Y-151962380D01*
X78208095Y-151914761D01*
X78160476Y-151867142D01*
%TO.C,D1*%
X92652380Y-132973095D02*
X91652380Y-132973095D01*
X91652380Y-132735000D01*
X91700000Y-132592142D01*
X91795238Y-132496904D01*
X91890476Y-132449285D01*
X92080952Y-132401666D01*
X92223809Y-132401666D01*
X92414285Y-132449285D01*
X92509523Y-132496904D01*
X92604761Y-132592142D01*
X92652380Y-132735000D01*
X92652380Y-132973095D01*
X92652380Y-131449285D02*
X92652380Y-132020714D01*
X92652380Y-131735000D02*
X91652380Y-131735000D01*
X91795238Y-131830238D01*
X91890476Y-131925476D01*
X91938095Y-132020714D01*
%TO.C,D5*%
X83081904Y-77412380D02*
X83081904Y-76412380D01*
X83320000Y-76412380D01*
X83462857Y-76460000D01*
X83558095Y-76555238D01*
X83605714Y-76650476D01*
X83653333Y-76840952D01*
X83653333Y-76983809D01*
X83605714Y-77174285D01*
X83558095Y-77269523D01*
X83462857Y-77364761D01*
X83320000Y-77412380D01*
X83081904Y-77412380D01*
X84558095Y-76412380D02*
X84081904Y-76412380D01*
X84034285Y-76888571D01*
X84081904Y-76840952D01*
X84177142Y-76793333D01*
X84415238Y-76793333D01*
X84510476Y-76840952D01*
X84558095Y-76888571D01*
X84605714Y-76983809D01*
X84605714Y-77221904D01*
X84558095Y-77317142D01*
X84510476Y-77364761D01*
X84415238Y-77412380D01*
X84177142Y-77412380D01*
X84081904Y-77364761D01*
X84034285Y-77317142D01*
%TO.C,SW3*%
X82064761Y-107753333D02*
X82112380Y-107610476D01*
X82112380Y-107372380D01*
X82064761Y-107277142D01*
X82017142Y-107229523D01*
X81921904Y-107181904D01*
X81826666Y-107181904D01*
X81731428Y-107229523D01*
X81683809Y-107277142D01*
X81636190Y-107372380D01*
X81588571Y-107562857D01*
X81540952Y-107658095D01*
X81493333Y-107705714D01*
X81398095Y-107753333D01*
X81302857Y-107753333D01*
X81207619Y-107705714D01*
X81160000Y-107658095D01*
X81112380Y-107562857D01*
X81112380Y-107324761D01*
X81160000Y-107181904D01*
X81112380Y-106848571D02*
X82112380Y-106610476D01*
X81398095Y-106420000D01*
X82112380Y-106229523D01*
X81112380Y-105991428D01*
X81112380Y-105705714D02*
X81112380Y-105086666D01*
X81493333Y-105420000D01*
X81493333Y-105277142D01*
X81540952Y-105181904D01*
X81588571Y-105134285D01*
X81683809Y-105086666D01*
X81921904Y-105086666D01*
X82017142Y-105134285D01*
X82064761Y-105181904D01*
X82112380Y-105277142D01*
X82112380Y-105562857D01*
X82064761Y-105658095D01*
X82017142Y-105705714D01*
%TO.C,D4*%
X59106904Y-132022380D02*
X59106904Y-131022380D01*
X59345000Y-131022380D01*
X59487857Y-131070000D01*
X59583095Y-131165238D01*
X59630714Y-131260476D01*
X59678333Y-131450952D01*
X59678333Y-131593809D01*
X59630714Y-131784285D01*
X59583095Y-131879523D01*
X59487857Y-131974761D01*
X59345000Y-132022380D01*
X59106904Y-132022380D01*
X60535476Y-131355714D02*
X60535476Y-132022380D01*
X60297380Y-130974761D02*
X60059285Y-131689047D01*
X60678333Y-131689047D01*
%TO.C,SW2*%
X66864761Y-107665996D02*
X66912380Y-107523139D01*
X66912380Y-107285043D01*
X66864761Y-107189805D01*
X66817142Y-107142186D01*
X66721904Y-107094567D01*
X66626666Y-107094567D01*
X66531428Y-107142186D01*
X66483809Y-107189805D01*
X66436190Y-107285043D01*
X66388571Y-107475520D01*
X66340952Y-107570758D01*
X66293333Y-107618377D01*
X66198095Y-107665996D01*
X66102857Y-107665996D01*
X66007619Y-107618377D01*
X65960000Y-107570758D01*
X65912380Y-107475520D01*
X65912380Y-107237424D01*
X65960000Y-107094567D01*
X65912380Y-106761234D02*
X66912380Y-106523139D01*
X66198095Y-106332663D01*
X66912380Y-106142186D01*
X65912380Y-105904091D01*
X66007619Y-105570758D02*
X65960000Y-105523139D01*
X65912380Y-105427901D01*
X65912380Y-105189805D01*
X65960000Y-105094567D01*
X66007619Y-105046948D01*
X66102857Y-104999329D01*
X66198095Y-104999329D01*
X66340952Y-105046948D01*
X66912380Y-105618377D01*
X66912380Y-104999329D01*
%TO.C,R25*%
X53054642Y-114372380D02*
X52721309Y-113896190D01*
X52483214Y-114372380D02*
X52483214Y-113372380D01*
X52864166Y-113372380D01*
X52959404Y-113420000D01*
X53007023Y-113467619D01*
X53054642Y-113562857D01*
X53054642Y-113705714D01*
X53007023Y-113800952D01*
X52959404Y-113848571D01*
X52864166Y-113896190D01*
X52483214Y-113896190D01*
X53435595Y-113467619D02*
X53483214Y-113420000D01*
X53578452Y-113372380D01*
X53816547Y-113372380D01*
X53911785Y-113420000D01*
X53959404Y-113467619D01*
X54007023Y-113562857D01*
X54007023Y-113658095D01*
X53959404Y-113800952D01*
X53387976Y-114372380D01*
X54007023Y-114372380D01*
X54911785Y-113372380D02*
X54435595Y-113372380D01*
X54387976Y-113848571D01*
X54435595Y-113800952D01*
X54530833Y-113753333D01*
X54768928Y-113753333D01*
X54864166Y-113800952D01*
X54911785Y-113848571D01*
X54959404Y-113943809D01*
X54959404Y-114181904D01*
X54911785Y-114277142D01*
X54864166Y-114324761D01*
X54768928Y-114372380D01*
X54530833Y-114372380D01*
X54435595Y-114324761D01*
X54387976Y-114277142D01*
%TO.C,C1*%
X81227142Y-82716666D02*
X81274761Y-82764285D01*
X81322380Y-82907142D01*
X81322380Y-83002380D01*
X81274761Y-83145238D01*
X81179523Y-83240476D01*
X81084285Y-83288095D01*
X80893809Y-83335714D01*
X80750952Y-83335714D01*
X80560476Y-83288095D01*
X80465238Y-83240476D01*
X80370000Y-83145238D01*
X80322380Y-83002380D01*
X80322380Y-82907142D01*
X80370000Y-82764285D01*
X80417619Y-82716666D01*
X81322380Y-81764285D02*
X81322380Y-82335714D01*
X81322380Y-82050000D02*
X80322380Y-82050000D01*
X80465238Y-82145238D01*
X80560476Y-82240476D01*
X80608095Y-82335714D01*
%TO.C,C2*%
X84587142Y-75096666D02*
X84634761Y-75144285D01*
X84682380Y-75287142D01*
X84682380Y-75382380D01*
X84634761Y-75525238D01*
X84539523Y-75620476D01*
X84444285Y-75668095D01*
X84253809Y-75715714D01*
X84110952Y-75715714D01*
X83920476Y-75668095D01*
X83825238Y-75620476D01*
X83730000Y-75525238D01*
X83682380Y-75382380D01*
X83682380Y-75287142D01*
X83730000Y-75144285D01*
X83777619Y-75096666D01*
X83777619Y-74715714D02*
X83730000Y-74668095D01*
X83682380Y-74572857D01*
X83682380Y-74334761D01*
X83730000Y-74239523D01*
X83777619Y-74191904D01*
X83872857Y-74144285D01*
X83968095Y-74144285D01*
X84110952Y-74191904D01*
X84682380Y-74763333D01*
X84682380Y-74144285D01*
%TO.C,C4*%
X75103333Y-135087142D02*
X75055714Y-135134761D01*
X74912857Y-135182380D01*
X74817619Y-135182380D01*
X74674761Y-135134761D01*
X74579523Y-135039523D01*
X74531904Y-134944285D01*
X74484285Y-134753809D01*
X74484285Y-134610952D01*
X74531904Y-134420476D01*
X74579523Y-134325238D01*
X74674761Y-134230000D01*
X74817619Y-134182380D01*
X74912857Y-134182380D01*
X75055714Y-134230000D01*
X75103333Y-134277619D01*
X75960476Y-134515714D02*
X75960476Y-135182380D01*
X75722380Y-134134761D02*
X75484285Y-134849047D01*
X76103333Y-134849047D01*
%TO.C,R27*%
X58689642Y-128342380D02*
X58356309Y-127866190D01*
X58118214Y-128342380D02*
X58118214Y-127342380D01*
X58499166Y-127342380D01*
X58594404Y-127390000D01*
X58642023Y-127437619D01*
X58689642Y-127532857D01*
X58689642Y-127675714D01*
X58642023Y-127770952D01*
X58594404Y-127818571D01*
X58499166Y-127866190D01*
X58118214Y-127866190D01*
X59070595Y-127437619D02*
X59118214Y-127390000D01*
X59213452Y-127342380D01*
X59451547Y-127342380D01*
X59546785Y-127390000D01*
X59594404Y-127437619D01*
X59642023Y-127532857D01*
X59642023Y-127628095D01*
X59594404Y-127770952D01*
X59022976Y-128342380D01*
X59642023Y-128342380D01*
X59975357Y-127342380D02*
X60642023Y-127342380D01*
X60213452Y-128342380D01*
%TO.C,C8*%
X82497142Y-68746666D02*
X82544761Y-68794285D01*
X82592380Y-68937142D01*
X82592380Y-69032380D01*
X82544761Y-69175238D01*
X82449523Y-69270476D01*
X82354285Y-69318095D01*
X82163809Y-69365714D01*
X82020952Y-69365714D01*
X81830476Y-69318095D01*
X81735238Y-69270476D01*
X81640000Y-69175238D01*
X81592380Y-69032380D01*
X81592380Y-68937142D01*
X81640000Y-68794285D01*
X81687619Y-68746666D01*
X82020952Y-68175238D02*
X81973333Y-68270476D01*
X81925714Y-68318095D01*
X81830476Y-68365714D01*
X81782857Y-68365714D01*
X81687619Y-68318095D01*
X81640000Y-68270476D01*
X81592380Y-68175238D01*
X81592380Y-67984761D01*
X81640000Y-67889523D01*
X81687619Y-67841904D01*
X81782857Y-67794285D01*
X81830476Y-67794285D01*
X81925714Y-67841904D01*
X81973333Y-67889523D01*
X82020952Y-67984761D01*
X82020952Y-68175238D01*
X82068571Y-68270476D01*
X82116190Y-68318095D01*
X82211428Y-68365714D01*
X82401904Y-68365714D01*
X82497142Y-68318095D01*
X82544761Y-68270476D01*
X82592380Y-68175238D01*
X82592380Y-67984761D01*
X82544761Y-67889523D01*
X82497142Y-67841904D01*
X82401904Y-67794285D01*
X82211428Y-67794285D01*
X82116190Y-67841904D01*
X82068571Y-67889523D01*
X82020952Y-67984761D01*
%TO.C,R28*%
X55594642Y-69922380D02*
X55261309Y-69446190D01*
X55023214Y-69922380D02*
X55023214Y-68922380D01*
X55404166Y-68922380D01*
X55499404Y-68970000D01*
X55547023Y-69017619D01*
X55594642Y-69112857D01*
X55594642Y-69255714D01*
X55547023Y-69350952D01*
X55499404Y-69398571D01*
X55404166Y-69446190D01*
X55023214Y-69446190D01*
X55975595Y-69017619D02*
X56023214Y-68970000D01*
X56118452Y-68922380D01*
X56356547Y-68922380D01*
X56451785Y-68970000D01*
X56499404Y-69017619D01*
X56547023Y-69112857D01*
X56547023Y-69208095D01*
X56499404Y-69350952D01*
X55927976Y-69922380D01*
X56547023Y-69922380D01*
X57118452Y-69350952D02*
X57023214Y-69303333D01*
X56975595Y-69255714D01*
X56927976Y-69160476D01*
X56927976Y-69112857D01*
X56975595Y-69017619D01*
X57023214Y-68970000D01*
X57118452Y-68922380D01*
X57308928Y-68922380D01*
X57404166Y-68970000D01*
X57451785Y-69017619D01*
X57499404Y-69112857D01*
X57499404Y-69160476D01*
X57451785Y-69255714D01*
X57404166Y-69303333D01*
X57308928Y-69350952D01*
X57118452Y-69350952D01*
X57023214Y-69398571D01*
X56975595Y-69446190D01*
X56927976Y-69541428D01*
X56927976Y-69731904D01*
X56975595Y-69827142D01*
X57023214Y-69874761D01*
X57118452Y-69922380D01*
X57308928Y-69922380D01*
X57404166Y-69874761D01*
X57451785Y-69827142D01*
X57499404Y-69731904D01*
X57499404Y-69541428D01*
X57451785Y-69446190D01*
X57404166Y-69398571D01*
X57308928Y-69350952D01*
%TO.C,C7*%
X58667142Y-81106666D02*
X58714761Y-81154285D01*
X58762380Y-81297142D01*
X58762380Y-81392380D01*
X58714761Y-81535238D01*
X58619523Y-81630476D01*
X58524285Y-81678095D01*
X58333809Y-81725714D01*
X58190952Y-81725714D01*
X58000476Y-81678095D01*
X57905238Y-81630476D01*
X57810000Y-81535238D01*
X57762380Y-81392380D01*
X57762380Y-81297142D01*
X57810000Y-81154285D01*
X57857619Y-81106666D01*
X57762380Y-80773333D02*
X57762380Y-80106666D01*
X58762380Y-80535238D01*
%TO.C,SW4*%
X96098306Y-125767283D02*
X96145925Y-125624426D01*
X96145925Y-125386330D01*
X96098306Y-125291092D01*
X96050687Y-125243473D01*
X95955449Y-125195854D01*
X95860211Y-125195854D01*
X95764973Y-125243473D01*
X95717354Y-125291092D01*
X95669735Y-125386330D01*
X95622116Y-125576807D01*
X95574497Y-125672045D01*
X95526878Y-125719664D01*
X95431640Y-125767283D01*
X95336402Y-125767283D01*
X95241164Y-125719664D01*
X95193545Y-125672045D01*
X95145925Y-125576807D01*
X95145925Y-125338711D01*
X95193545Y-125195854D01*
X95145925Y-124862521D02*
X96145925Y-124624426D01*
X95431640Y-124433950D01*
X96145925Y-124243473D01*
X95145925Y-124005378D01*
X95479259Y-123195854D02*
X96145925Y-123195854D01*
X95098306Y-123433950D02*
X95812592Y-123672045D01*
X95812592Y-123052997D01*
%TO.C,R26*%
X53609642Y-135452380D02*
X53276309Y-134976190D01*
X53038214Y-135452380D02*
X53038214Y-134452380D01*
X53419166Y-134452380D01*
X53514404Y-134500000D01*
X53562023Y-134547619D01*
X53609642Y-134642857D01*
X53609642Y-134785714D01*
X53562023Y-134880952D01*
X53514404Y-134928571D01*
X53419166Y-134976190D01*
X53038214Y-134976190D01*
X53990595Y-134547619D02*
X54038214Y-134500000D01*
X54133452Y-134452380D01*
X54371547Y-134452380D01*
X54466785Y-134500000D01*
X54514404Y-134547619D01*
X54562023Y-134642857D01*
X54562023Y-134738095D01*
X54514404Y-134880952D01*
X53942976Y-135452380D01*
X54562023Y-135452380D01*
X55419166Y-134452380D02*
X55228690Y-134452380D01*
X55133452Y-134500000D01*
X55085833Y-134547619D01*
X54990595Y-134690476D01*
X54942976Y-134880952D01*
X54942976Y-135261904D01*
X54990595Y-135357142D01*
X55038214Y-135404761D01*
X55133452Y-135452380D01*
X55323928Y-135452380D01*
X55419166Y-135404761D01*
X55466785Y-135357142D01*
X55514404Y-135261904D01*
X55514404Y-135023809D01*
X55466785Y-134928571D01*
X55419166Y-134880952D01*
X55323928Y-134833333D01*
X55133452Y-134833333D01*
X55038214Y-134880952D01*
X54990595Y-134928571D01*
X54942976Y-135023809D01*
%TO.C,R20*%
X89884642Y-135452380D02*
X89551309Y-134976190D01*
X89313214Y-135452380D02*
X89313214Y-134452380D01*
X89694166Y-134452380D01*
X89789404Y-134500000D01*
X89837023Y-134547619D01*
X89884642Y-134642857D01*
X89884642Y-134785714D01*
X89837023Y-134880952D01*
X89789404Y-134928571D01*
X89694166Y-134976190D01*
X89313214Y-134976190D01*
X90265595Y-134547619D02*
X90313214Y-134500000D01*
X90408452Y-134452380D01*
X90646547Y-134452380D01*
X90741785Y-134500000D01*
X90789404Y-134547619D01*
X90837023Y-134642857D01*
X90837023Y-134738095D01*
X90789404Y-134880952D01*
X90217976Y-135452380D01*
X90837023Y-135452380D01*
X91456071Y-134452380D02*
X91551309Y-134452380D01*
X91646547Y-134500000D01*
X91694166Y-134547619D01*
X91741785Y-134642857D01*
X91789404Y-134833333D01*
X91789404Y-135071428D01*
X91741785Y-135261904D01*
X91694166Y-135357142D01*
X91646547Y-135404761D01*
X91551309Y-135452380D01*
X91456071Y-135452380D01*
X91360833Y-135404761D01*
X91313214Y-135357142D01*
X91265595Y-135261904D01*
X91217976Y-135071428D01*
X91217976Y-134833333D01*
X91265595Y-134642857D01*
X91313214Y-134547619D01*
X91360833Y-134500000D01*
X91456071Y-134452380D01*
%TO.C,R19*%
X84089642Y-127832380D02*
X83756309Y-127356190D01*
X83518214Y-127832380D02*
X83518214Y-126832380D01*
X83899166Y-126832380D01*
X83994404Y-126880000D01*
X84042023Y-126927619D01*
X84089642Y-127022857D01*
X84089642Y-127165714D01*
X84042023Y-127260952D01*
X83994404Y-127308571D01*
X83899166Y-127356190D01*
X83518214Y-127356190D01*
X85042023Y-127832380D02*
X84470595Y-127832380D01*
X84756309Y-127832380D02*
X84756309Y-126832380D01*
X84661071Y-126975238D01*
X84565833Y-127070476D01*
X84470595Y-127118095D01*
X85518214Y-127832380D02*
X85708690Y-127832380D01*
X85803928Y-127784761D01*
X85851547Y-127737142D01*
X85946785Y-127594285D01*
X85994404Y-127403809D01*
X85994404Y-127022857D01*
X85946785Y-126927619D01*
X85899166Y-126880000D01*
X85803928Y-126832380D01*
X85613452Y-126832380D01*
X85518214Y-126880000D01*
X85470595Y-126927619D01*
X85422976Y-127022857D01*
X85422976Y-127260952D01*
X85470595Y-127356190D01*
X85518214Y-127403809D01*
X85613452Y-127451428D01*
X85803928Y-127451428D01*
X85899166Y-127403809D01*
X85946785Y-127356190D01*
X85994404Y-127260952D01*
%TO.C,C6*%
X56033333Y-75697142D02*
X55985714Y-75744761D01*
X55842857Y-75792380D01*
X55747619Y-75792380D01*
X55604761Y-75744761D01*
X55509523Y-75649523D01*
X55461904Y-75554285D01*
X55414285Y-75363809D01*
X55414285Y-75220952D01*
X55461904Y-75030476D01*
X55509523Y-74935238D01*
X55604761Y-74840000D01*
X55747619Y-74792380D01*
X55842857Y-74792380D01*
X55985714Y-74840000D01*
X56033333Y-74887619D01*
X56890476Y-74792380D02*
X56700000Y-74792380D01*
X56604761Y-74840000D01*
X56557142Y-74887619D01*
X56461904Y-75030476D01*
X56414285Y-75220952D01*
X56414285Y-75601904D01*
X56461904Y-75697142D01*
X56509523Y-75744761D01*
X56604761Y-75792380D01*
X56795238Y-75792380D01*
X56890476Y-75744761D01*
X56938095Y-75697142D01*
X56985714Y-75601904D01*
X56985714Y-75363809D01*
X56938095Y-75268571D01*
X56890476Y-75220952D01*
X56795238Y-75173333D01*
X56604761Y-75173333D01*
X56509523Y-75220952D01*
X56461904Y-75268571D01*
X56414285Y-75363809D01*
%TO.C,SW1*%
X51584761Y-107753333D02*
X51632380Y-107610476D01*
X51632380Y-107372380D01*
X51584761Y-107277142D01*
X51537142Y-107229523D01*
X51441904Y-107181904D01*
X51346666Y-107181904D01*
X51251428Y-107229523D01*
X51203809Y-107277142D01*
X51156190Y-107372380D01*
X51108571Y-107562857D01*
X51060952Y-107658095D01*
X51013333Y-107705714D01*
X50918095Y-107753333D01*
X50822857Y-107753333D01*
X50727619Y-107705714D01*
X50680000Y-107658095D01*
X50632380Y-107562857D01*
X50632380Y-107324761D01*
X50680000Y-107181904D01*
X50632380Y-106848571D02*
X51632380Y-106610476D01*
X50918095Y-106420000D01*
X51632380Y-106229523D01*
X50632380Y-105991428D01*
X51632380Y-105086666D02*
X51632380Y-105658095D01*
X51632380Y-105372380D02*
X50632380Y-105372380D01*
X50775238Y-105467619D01*
X50870476Y-105562857D01*
X50918095Y-105658095D01*
%TO.C,R23*%
X68652380Y-146692857D02*
X68176190Y-147026190D01*
X68652380Y-147264285D02*
X67652380Y-147264285D01*
X67652380Y-146883333D01*
X67700000Y-146788095D01*
X67747619Y-146740476D01*
X67842857Y-146692857D01*
X67985714Y-146692857D01*
X68080952Y-146740476D01*
X68128571Y-146788095D01*
X68176190Y-146883333D01*
X68176190Y-147264285D01*
X67747619Y-146311904D02*
X67700000Y-146264285D01*
X67652380Y-146169047D01*
X67652380Y-145930952D01*
X67700000Y-145835714D01*
X67747619Y-145788095D01*
X67842857Y-145740476D01*
X67938095Y-145740476D01*
X68080952Y-145788095D01*
X68652380Y-146359523D01*
X68652380Y-145740476D01*
X67652380Y-145407142D02*
X67652380Y-144788095D01*
X68033333Y-145121428D01*
X68033333Y-144978571D01*
X68080952Y-144883333D01*
X68128571Y-144835714D01*
X68223809Y-144788095D01*
X68461904Y-144788095D01*
X68557142Y-144835714D01*
X68604761Y-144883333D01*
X68652380Y-144978571D01*
X68652380Y-145264285D01*
X68604761Y-145359523D01*
X68557142Y-145407142D01*
%TO.C,R21*%
X89884642Y-129612380D02*
X89551309Y-129136190D01*
X89313214Y-129612380D02*
X89313214Y-128612380D01*
X89694166Y-128612380D01*
X89789404Y-128660000D01*
X89837023Y-128707619D01*
X89884642Y-128802857D01*
X89884642Y-128945714D01*
X89837023Y-129040952D01*
X89789404Y-129088571D01*
X89694166Y-129136190D01*
X89313214Y-129136190D01*
X90265595Y-128707619D02*
X90313214Y-128660000D01*
X90408452Y-128612380D01*
X90646547Y-128612380D01*
X90741785Y-128660000D01*
X90789404Y-128707619D01*
X90837023Y-128802857D01*
X90837023Y-128898095D01*
X90789404Y-129040952D01*
X90217976Y-129612380D01*
X90837023Y-129612380D01*
X91789404Y-129612380D02*
X91217976Y-129612380D01*
X91503690Y-129612380D02*
X91503690Y-128612380D01*
X91408452Y-128755238D01*
X91313214Y-128850476D01*
X91217976Y-128898095D01*
%TO.C,D3*%
X85032380Y-68048095D02*
X84032380Y-68048095D01*
X84032380Y-67810000D01*
X84080000Y-67667142D01*
X84175238Y-67571904D01*
X84270476Y-67524285D01*
X84460952Y-67476666D01*
X84603809Y-67476666D01*
X84794285Y-67524285D01*
X84889523Y-67571904D01*
X84984761Y-67667142D01*
X85032380Y-67810000D01*
X85032380Y-68048095D01*
X84032380Y-67143333D02*
X84032380Y-66524285D01*
X84413333Y-66857619D01*
X84413333Y-66714761D01*
X84460952Y-66619523D01*
X84508571Y-66571904D01*
X84603809Y-66524285D01*
X84841904Y-66524285D01*
X84937142Y-66571904D01*
X84984761Y-66619523D01*
X85032380Y-66714761D01*
X85032380Y-67000476D01*
X84984761Y-67095714D01*
X84937142Y-67143333D01*
%TO.C,R14*%
X84089642Y-130372380D02*
X83756309Y-129896190D01*
X83518214Y-130372380D02*
X83518214Y-129372380D01*
X83899166Y-129372380D01*
X83994404Y-129420000D01*
X84042023Y-129467619D01*
X84089642Y-129562857D01*
X84089642Y-129705714D01*
X84042023Y-129800952D01*
X83994404Y-129848571D01*
X83899166Y-129896190D01*
X83518214Y-129896190D01*
X85042023Y-130372380D02*
X84470595Y-130372380D01*
X84756309Y-130372380D02*
X84756309Y-129372380D01*
X84661071Y-129515238D01*
X84565833Y-129610476D01*
X84470595Y-129658095D01*
X85899166Y-129705714D02*
X85899166Y-130372380D01*
X85661071Y-129324761D02*
X85422976Y-130039047D01*
X86042023Y-130039047D01*
%TO.C,R18*%
X92782380Y-117840357D02*
X92306190Y-118173690D01*
X92782380Y-118411785D02*
X91782380Y-118411785D01*
X91782380Y-118030833D01*
X91830000Y-117935595D01*
X91877619Y-117887976D01*
X91972857Y-117840357D01*
X92115714Y-117840357D01*
X92210952Y-117887976D01*
X92258571Y-117935595D01*
X92306190Y-118030833D01*
X92306190Y-118411785D01*
X92782380Y-116887976D02*
X92782380Y-117459404D01*
X92782380Y-117173690D02*
X91782380Y-117173690D01*
X91925238Y-117268928D01*
X92020476Y-117364166D01*
X92068095Y-117459404D01*
X92210952Y-116316547D02*
X92163333Y-116411785D01*
X92115714Y-116459404D01*
X92020476Y-116507023D01*
X91972857Y-116507023D01*
X91877619Y-116459404D01*
X91830000Y-116411785D01*
X91782380Y-116316547D01*
X91782380Y-116126071D01*
X91830000Y-116030833D01*
X91877619Y-115983214D01*
X91972857Y-115935595D01*
X92020476Y-115935595D01*
X92115714Y-115983214D01*
X92163333Y-116030833D01*
X92210952Y-116126071D01*
X92210952Y-116316547D01*
X92258571Y-116411785D01*
X92306190Y-116459404D01*
X92401428Y-116507023D01*
X92591904Y-116507023D01*
X92687142Y-116459404D01*
X92734761Y-116411785D01*
X92782380Y-116316547D01*
X92782380Y-116126071D01*
X92734761Y-116030833D01*
X92687142Y-115983214D01*
X92591904Y-115935595D01*
X92401428Y-115935595D01*
X92306190Y-115983214D01*
X92258571Y-116030833D01*
X92210952Y-116126071D01*
%TO.C,R6*%
X54443333Y-93542380D02*
X54110000Y-93066190D01*
X53871904Y-93542380D02*
X53871904Y-92542380D01*
X54252857Y-92542380D01*
X54348095Y-92590000D01*
X54395714Y-92637619D01*
X54443333Y-92732857D01*
X54443333Y-92875714D01*
X54395714Y-92970952D01*
X54348095Y-93018571D01*
X54252857Y-93066190D01*
X53871904Y-93066190D01*
X55300476Y-92542380D02*
X55110000Y-92542380D01*
X55014761Y-92590000D01*
X54967142Y-92637619D01*
X54871904Y-92780476D01*
X54824285Y-92970952D01*
X54824285Y-93351904D01*
X54871904Y-93447142D01*
X54919523Y-93494761D01*
X55014761Y-93542380D01*
X55205238Y-93542380D01*
X55300476Y-93494761D01*
X55348095Y-93447142D01*
X55395714Y-93351904D01*
X55395714Y-93113809D01*
X55348095Y-93018571D01*
X55300476Y-92970952D01*
X55205238Y-92923333D01*
X55014761Y-92923333D01*
X54919523Y-92970952D01*
X54871904Y-93018571D01*
X54824285Y-93113809D01*
%TO.C,Q2*%
X73834761Y-117347619D02*
X73739523Y-117300000D01*
X73644285Y-117204761D01*
X73501428Y-117061904D01*
X73406190Y-117014285D01*
X73310952Y-117014285D01*
X73358571Y-117252380D02*
X73263333Y-117204761D01*
X73168095Y-117109523D01*
X73120476Y-116919047D01*
X73120476Y-116585714D01*
X73168095Y-116395238D01*
X73263333Y-116300000D01*
X73358571Y-116252380D01*
X73549047Y-116252380D01*
X73644285Y-116300000D01*
X73739523Y-116395238D01*
X73787142Y-116585714D01*
X73787142Y-116919047D01*
X73739523Y-117109523D01*
X73644285Y-117204761D01*
X73549047Y-117252380D01*
X73358571Y-117252380D01*
X74168095Y-116347619D02*
X74215714Y-116300000D01*
X74310952Y-116252380D01*
X74549047Y-116252380D01*
X74644285Y-116300000D01*
X74691904Y-116347619D01*
X74739523Y-116442857D01*
X74739523Y-116538095D01*
X74691904Y-116680952D01*
X74120476Y-117252380D01*
X74739523Y-117252380D01*
%TO.C,C5*%
X75397142Y-69086666D02*
X75444761Y-69134285D01*
X75492380Y-69277142D01*
X75492380Y-69372380D01*
X75444761Y-69515238D01*
X75349523Y-69610476D01*
X75254285Y-69658095D01*
X75063809Y-69705714D01*
X74920952Y-69705714D01*
X74730476Y-69658095D01*
X74635238Y-69610476D01*
X74540000Y-69515238D01*
X74492380Y-69372380D01*
X74492380Y-69277142D01*
X74540000Y-69134285D01*
X74587619Y-69086666D01*
X74492380Y-68181904D02*
X74492380Y-68658095D01*
X74968571Y-68705714D01*
X74920952Y-68658095D01*
X74873333Y-68562857D01*
X74873333Y-68324761D01*
X74920952Y-68229523D01*
X74968571Y-68181904D01*
X75063809Y-68134285D01*
X75301904Y-68134285D01*
X75397142Y-68181904D01*
X75444761Y-68229523D01*
X75492380Y-68324761D01*
X75492380Y-68562857D01*
X75444761Y-68658095D01*
X75397142Y-68705714D01*
%TO.C,R17*%
X86074642Y-111832380D02*
X85741309Y-111356190D01*
X85503214Y-111832380D02*
X85503214Y-110832380D01*
X85884166Y-110832380D01*
X85979404Y-110880000D01*
X86027023Y-110927619D01*
X86074642Y-111022857D01*
X86074642Y-111165714D01*
X86027023Y-111260952D01*
X85979404Y-111308571D01*
X85884166Y-111356190D01*
X85503214Y-111356190D01*
X87027023Y-111832380D02*
X86455595Y-111832380D01*
X86741309Y-111832380D02*
X86741309Y-110832380D01*
X86646071Y-110975238D01*
X86550833Y-111070476D01*
X86455595Y-111118095D01*
X87360357Y-110832380D02*
X88027023Y-110832380D01*
X87598452Y-111832380D01*
%TO.C,J7*%
X55546666Y-149592380D02*
X55546666Y-150306666D01*
X55499047Y-150449523D01*
X55403809Y-150544761D01*
X55260952Y-150592380D01*
X55165714Y-150592380D01*
X55927619Y-149592380D02*
X56594285Y-149592380D01*
X56165714Y-150592380D01*
%TO.C,Q4*%
X60864761Y-124967619D02*
X60769523Y-124920000D01*
X60674285Y-124824761D01*
X60531428Y-124681904D01*
X60436190Y-124634285D01*
X60340952Y-124634285D01*
X60388571Y-124872380D02*
X60293333Y-124824761D01*
X60198095Y-124729523D01*
X60150476Y-124539047D01*
X60150476Y-124205714D01*
X60198095Y-124015238D01*
X60293333Y-123920000D01*
X60388571Y-123872380D01*
X60579047Y-123872380D01*
X60674285Y-123920000D01*
X60769523Y-124015238D01*
X60817142Y-124205714D01*
X60817142Y-124539047D01*
X60769523Y-124729523D01*
X60674285Y-124824761D01*
X60579047Y-124872380D01*
X60388571Y-124872380D01*
X61674285Y-124205714D02*
X61674285Y-124872380D01*
X61436190Y-123824761D02*
X61198095Y-124539047D01*
X61817142Y-124539047D01*
%TO.C,R12*%
X89884642Y-90242380D02*
X89551309Y-89766190D01*
X89313214Y-90242380D02*
X89313214Y-89242380D01*
X89694166Y-89242380D01*
X89789404Y-89290000D01*
X89837023Y-89337619D01*
X89884642Y-89432857D01*
X89884642Y-89575714D01*
X89837023Y-89670952D01*
X89789404Y-89718571D01*
X89694166Y-89766190D01*
X89313214Y-89766190D01*
X90837023Y-90242380D02*
X90265595Y-90242380D01*
X90551309Y-90242380D02*
X90551309Y-89242380D01*
X90456071Y-89385238D01*
X90360833Y-89480476D01*
X90265595Y-89528095D01*
X91217976Y-89337619D02*
X91265595Y-89290000D01*
X91360833Y-89242380D01*
X91598928Y-89242380D01*
X91694166Y-89290000D01*
X91741785Y-89337619D01*
X91789404Y-89432857D01*
X91789404Y-89528095D01*
X91741785Y-89670952D01*
X91170357Y-90242380D01*
X91789404Y-90242380D01*
%TO.C,J3*%
X79676666Y-164832380D02*
X79676666Y-165546666D01*
X79629047Y-165689523D01*
X79533809Y-165784761D01*
X79390952Y-165832380D01*
X79295714Y-165832380D01*
X80057619Y-164832380D02*
X80676666Y-164832380D01*
X80343333Y-165213333D01*
X80486190Y-165213333D01*
X80581428Y-165260952D01*
X80629047Y-165308571D01*
X80676666Y-165403809D01*
X80676666Y-165641904D01*
X80629047Y-165737142D01*
X80581428Y-165784761D01*
X80486190Y-165832380D01*
X80200476Y-165832380D01*
X80105238Y-165784761D01*
X80057619Y-165737142D01*
%TO.C,J11*%
X84772380Y-63039523D02*
X85486666Y-63039523D01*
X85629523Y-63087142D01*
X85724761Y-63182380D01*
X85772380Y-63325238D01*
X85772380Y-63420476D01*
X85772380Y-62039523D02*
X85772380Y-62610952D01*
X85772380Y-62325238D02*
X84772380Y-62325238D01*
X84915238Y-62420476D01*
X85010476Y-62515714D01*
X85058095Y-62610952D01*
X85772380Y-61087142D02*
X85772380Y-61658571D01*
X85772380Y-61372857D02*
X84772380Y-61372857D01*
X84915238Y-61468095D01*
X85010476Y-61563333D01*
X85058095Y-61658571D01*
%TO.C,Q5*%
X91074761Y-112667619D02*
X90979523Y-112620000D01*
X90884285Y-112524761D01*
X90741428Y-112381904D01*
X90646190Y-112334285D01*
X90550952Y-112334285D01*
X90598571Y-112572380D02*
X90503333Y-112524761D01*
X90408095Y-112429523D01*
X90360476Y-112239047D01*
X90360476Y-111905714D01*
X90408095Y-111715238D01*
X90503333Y-111620000D01*
X90598571Y-111572380D01*
X90789047Y-111572380D01*
X90884285Y-111620000D01*
X90979523Y-111715238D01*
X91027142Y-111905714D01*
X91027142Y-112239047D01*
X90979523Y-112429523D01*
X90884285Y-112524761D01*
X90789047Y-112572380D01*
X90598571Y-112572380D01*
X91931904Y-111572380D02*
X91455714Y-111572380D01*
X91408095Y-112048571D01*
X91455714Y-112000952D01*
X91550952Y-111953333D01*
X91789047Y-111953333D01*
X91884285Y-112000952D01*
X91931904Y-112048571D01*
X91979523Y-112143809D01*
X91979523Y-112381904D01*
X91931904Y-112477142D01*
X91884285Y-112524761D01*
X91789047Y-112572380D01*
X91550952Y-112572380D01*
X91455714Y-112524761D01*
X91408095Y-112477142D01*
%TO.C,Q3*%
X73564761Y-149097619D02*
X73469523Y-149050000D01*
X73374285Y-148954761D01*
X73231428Y-148811904D01*
X73136190Y-148764285D01*
X73040952Y-148764285D01*
X73088571Y-149002380D02*
X72993333Y-148954761D01*
X72898095Y-148859523D01*
X72850476Y-148669047D01*
X72850476Y-148335714D01*
X72898095Y-148145238D01*
X72993333Y-148050000D01*
X73088571Y-148002380D01*
X73279047Y-148002380D01*
X73374285Y-148050000D01*
X73469523Y-148145238D01*
X73517142Y-148335714D01*
X73517142Y-148669047D01*
X73469523Y-148859523D01*
X73374285Y-148954761D01*
X73279047Y-149002380D01*
X73088571Y-149002380D01*
X73850476Y-148002380D02*
X74469523Y-148002380D01*
X74136190Y-148383333D01*
X74279047Y-148383333D01*
X74374285Y-148430952D01*
X74421904Y-148478571D01*
X74469523Y-148573809D01*
X74469523Y-148811904D01*
X74421904Y-148907142D01*
X74374285Y-148954761D01*
X74279047Y-149002380D01*
X73993333Y-149002380D01*
X73898095Y-148954761D01*
X73850476Y-148907142D01*
%TO.C,R1*%
X84565833Y-119452380D02*
X84232500Y-118976190D01*
X83994404Y-119452380D02*
X83994404Y-118452380D01*
X84375357Y-118452380D01*
X84470595Y-118500000D01*
X84518214Y-118547619D01*
X84565833Y-118642857D01*
X84565833Y-118785714D01*
X84518214Y-118880952D01*
X84470595Y-118928571D01*
X84375357Y-118976190D01*
X83994404Y-118976190D01*
X85518214Y-119452380D02*
X84946785Y-119452380D01*
X85232500Y-119452380D02*
X85232500Y-118452380D01*
X85137261Y-118595238D01*
X85042023Y-118690476D01*
X84946785Y-118738095D01*
%TO.C,R11*%
X78454642Y-93542380D02*
X78121309Y-93066190D01*
X77883214Y-93542380D02*
X77883214Y-92542380D01*
X78264166Y-92542380D01*
X78359404Y-92590000D01*
X78407023Y-92637619D01*
X78454642Y-92732857D01*
X78454642Y-92875714D01*
X78407023Y-92970952D01*
X78359404Y-93018571D01*
X78264166Y-93066190D01*
X77883214Y-93066190D01*
X79407023Y-93542380D02*
X78835595Y-93542380D01*
X79121309Y-93542380D02*
X79121309Y-92542380D01*
X79026071Y-92685238D01*
X78930833Y-92780476D01*
X78835595Y-92828095D01*
X80359404Y-93542380D02*
X79787976Y-93542380D01*
X80073690Y-93542380D02*
X80073690Y-92542380D01*
X79978452Y-92685238D01*
X79883214Y-92780476D01*
X79787976Y-92828095D01*
%TO.C,Q1*%
X85264761Y-136717619D02*
X85169523Y-136670000D01*
X85074285Y-136574761D01*
X84931428Y-136431904D01*
X84836190Y-136384285D01*
X84740952Y-136384285D01*
X84788571Y-136622380D02*
X84693333Y-136574761D01*
X84598095Y-136479523D01*
X84550476Y-136289047D01*
X84550476Y-135955714D01*
X84598095Y-135765238D01*
X84693333Y-135670000D01*
X84788571Y-135622380D01*
X84979047Y-135622380D01*
X85074285Y-135670000D01*
X85169523Y-135765238D01*
X85217142Y-135955714D01*
X85217142Y-136289047D01*
X85169523Y-136479523D01*
X85074285Y-136574761D01*
X84979047Y-136622380D01*
X84788571Y-136622380D01*
X86169523Y-136622380D02*
X85598095Y-136622380D01*
X85883809Y-136622380D02*
X85883809Y-135622380D01*
X85788571Y-135765238D01*
X85693333Y-135860476D01*
X85598095Y-135908095D01*
%TO.C,FB2*%
X85526666Y-72158571D02*
X85193333Y-72158571D01*
X85193333Y-72682380D02*
X85193333Y-71682380D01*
X85669523Y-71682380D01*
X86383809Y-72158571D02*
X86526666Y-72206190D01*
X86574285Y-72253809D01*
X86621904Y-72349047D01*
X86621904Y-72491904D01*
X86574285Y-72587142D01*
X86526666Y-72634761D01*
X86431428Y-72682380D01*
X86050476Y-72682380D01*
X86050476Y-71682380D01*
X86383809Y-71682380D01*
X86479047Y-71730000D01*
X86526666Y-71777619D01*
X86574285Y-71872857D01*
X86574285Y-71968095D01*
X86526666Y-72063333D01*
X86479047Y-72110952D01*
X86383809Y-72158571D01*
X86050476Y-72158571D01*
X87002857Y-71777619D02*
X87050476Y-71730000D01*
X87145714Y-71682380D01*
X87383809Y-71682380D01*
X87479047Y-71730000D01*
X87526666Y-71777619D01*
X87574285Y-71872857D01*
X87574285Y-71968095D01*
X87526666Y-72110952D01*
X86955238Y-72682380D01*
X87574285Y-72682380D01*
%TO.C,FB1*%
X85526666Y-69618571D02*
X85193333Y-69618571D01*
X85193333Y-70142380D02*
X85193333Y-69142380D01*
X85669523Y-69142380D01*
X86383809Y-69618571D02*
X86526666Y-69666190D01*
X86574285Y-69713809D01*
X86621904Y-69809047D01*
X86621904Y-69951904D01*
X86574285Y-70047142D01*
X86526666Y-70094761D01*
X86431428Y-70142380D01*
X86050476Y-70142380D01*
X86050476Y-69142380D01*
X86383809Y-69142380D01*
X86479047Y-69190000D01*
X86526666Y-69237619D01*
X86574285Y-69332857D01*
X86574285Y-69428095D01*
X86526666Y-69523333D01*
X86479047Y-69570952D01*
X86383809Y-69618571D01*
X86050476Y-69618571D01*
X87574285Y-70142380D02*
X87002857Y-70142380D01*
X87288571Y-70142380D02*
X87288571Y-69142380D01*
X87193333Y-69285238D01*
X87098095Y-69380476D01*
X87002857Y-69428095D01*
%TO.C,R13*%
X69564642Y-134692380D02*
X69231309Y-134216190D01*
X68993214Y-134692380D02*
X68993214Y-133692380D01*
X69374166Y-133692380D01*
X69469404Y-133740000D01*
X69517023Y-133787619D01*
X69564642Y-133882857D01*
X69564642Y-134025714D01*
X69517023Y-134120952D01*
X69469404Y-134168571D01*
X69374166Y-134216190D01*
X68993214Y-134216190D01*
X70517023Y-134692380D02*
X69945595Y-134692380D01*
X70231309Y-134692380D02*
X70231309Y-133692380D01*
X70136071Y-133835238D01*
X70040833Y-133930476D01*
X69945595Y-133978095D01*
X70850357Y-133692380D02*
X71469404Y-133692380D01*
X71136071Y-134073333D01*
X71278928Y-134073333D01*
X71374166Y-134120952D01*
X71421785Y-134168571D01*
X71469404Y-134263809D01*
X71469404Y-134501904D01*
X71421785Y-134597142D01*
X71374166Y-134644761D01*
X71278928Y-134692380D01*
X70993214Y-134692380D01*
X70897976Y-134644761D01*
X70850357Y-134597142D01*
%TO.C,R10*%
X82622380Y-149232857D02*
X82146190Y-149566190D01*
X82622380Y-149804285D02*
X81622380Y-149804285D01*
X81622380Y-149423333D01*
X81670000Y-149328095D01*
X81717619Y-149280476D01*
X81812857Y-149232857D01*
X81955714Y-149232857D01*
X82050952Y-149280476D01*
X82098571Y-149328095D01*
X82146190Y-149423333D01*
X82146190Y-149804285D01*
X82622380Y-148280476D02*
X82622380Y-148851904D01*
X82622380Y-148566190D02*
X81622380Y-148566190D01*
X81765238Y-148661428D01*
X81860476Y-148756666D01*
X81908095Y-148851904D01*
X81622380Y-147661428D02*
X81622380Y-147566190D01*
X81670000Y-147470952D01*
X81717619Y-147423333D01*
X81812857Y-147375714D01*
X82003333Y-147328095D01*
X82241428Y-147328095D01*
X82431904Y-147375714D01*
X82527142Y-147423333D01*
X82574761Y-147470952D01*
X82622380Y-147566190D01*
X82622380Y-147661428D01*
X82574761Y-147756666D01*
X82527142Y-147804285D01*
X82431904Y-147851904D01*
X82241428Y-147899523D01*
X82003333Y-147899523D01*
X81812857Y-147851904D01*
X81717619Y-147804285D01*
X81670000Y-147756666D01*
X81622380Y-147661428D01*
%TO.C,J10*%
X74120476Y-75122380D02*
X74120476Y-75836666D01*
X74072857Y-75979523D01*
X73977619Y-76074761D01*
X73834761Y-76122380D01*
X73739523Y-76122380D01*
X75120476Y-76122380D02*
X74549047Y-76122380D01*
X74834761Y-76122380D02*
X74834761Y-75122380D01*
X74739523Y-75265238D01*
X74644285Y-75360476D01*
X74549047Y-75408095D01*
X75739523Y-75122380D02*
X75834761Y-75122380D01*
X75930000Y-75170000D01*
X75977619Y-75217619D01*
X76025238Y-75312857D01*
X76072857Y-75503333D01*
X76072857Y-75741428D01*
X76025238Y-75931904D01*
X75977619Y-76027142D01*
X75930000Y-76074761D01*
X75834761Y-76122380D01*
X75739523Y-76122380D01*
X75644285Y-76074761D01*
X75596666Y-76027142D01*
X75549047Y-75931904D01*
X75501428Y-75741428D01*
X75501428Y-75503333D01*
X75549047Y-75312857D01*
X75596666Y-75217619D01*
X75644285Y-75170000D01*
X75739523Y-75122380D01*
%TO.C,J9*%
X74596666Y-72582380D02*
X74596666Y-73296666D01*
X74549047Y-73439523D01*
X74453809Y-73534761D01*
X74310952Y-73582380D01*
X74215714Y-73582380D01*
X75120476Y-73582380D02*
X75310952Y-73582380D01*
X75406190Y-73534761D01*
X75453809Y-73487142D01*
X75549047Y-73344285D01*
X75596666Y-73153809D01*
X75596666Y-72772857D01*
X75549047Y-72677619D01*
X75501428Y-72630000D01*
X75406190Y-72582380D01*
X75215714Y-72582380D01*
X75120476Y-72630000D01*
X75072857Y-72677619D01*
X75025238Y-72772857D01*
X75025238Y-73010952D01*
X75072857Y-73106190D01*
X75120476Y-73153809D01*
X75215714Y-73201428D01*
X75406190Y-73201428D01*
X75501428Y-73153809D01*
X75549047Y-73106190D01*
X75596666Y-73010952D01*
%TO.C,R8*%
X77660833Y-111832380D02*
X77327500Y-111356190D01*
X77089404Y-111832380D02*
X77089404Y-110832380D01*
X77470357Y-110832380D01*
X77565595Y-110880000D01*
X77613214Y-110927619D01*
X77660833Y-111022857D01*
X77660833Y-111165714D01*
X77613214Y-111260952D01*
X77565595Y-111308571D01*
X77470357Y-111356190D01*
X77089404Y-111356190D01*
X78232261Y-111260952D02*
X78137023Y-111213333D01*
X78089404Y-111165714D01*
X78041785Y-111070476D01*
X78041785Y-111022857D01*
X78089404Y-110927619D01*
X78137023Y-110880000D01*
X78232261Y-110832380D01*
X78422738Y-110832380D01*
X78517976Y-110880000D01*
X78565595Y-110927619D01*
X78613214Y-111022857D01*
X78613214Y-111070476D01*
X78565595Y-111165714D01*
X78517976Y-111213333D01*
X78422738Y-111260952D01*
X78232261Y-111260952D01*
X78137023Y-111308571D01*
X78089404Y-111356190D01*
X78041785Y-111451428D01*
X78041785Y-111641904D01*
X78089404Y-111737142D01*
X78137023Y-111784761D01*
X78232261Y-111832380D01*
X78422738Y-111832380D01*
X78517976Y-111784761D01*
X78565595Y-111737142D01*
X78613214Y-111641904D01*
X78613214Y-111451428D01*
X78565595Y-111356190D01*
X78517976Y-111308571D01*
X78422738Y-111260952D01*
%TO.C,R7*%
X66230833Y-93542380D02*
X65897500Y-93066190D01*
X65659404Y-93542380D02*
X65659404Y-92542380D01*
X66040357Y-92542380D01*
X66135595Y-92590000D01*
X66183214Y-92637619D01*
X66230833Y-92732857D01*
X66230833Y-92875714D01*
X66183214Y-92970952D01*
X66135595Y-93018571D01*
X66040357Y-93066190D01*
X65659404Y-93066190D01*
X66564166Y-92542380D02*
X67230833Y-92542380D01*
X66802261Y-93542380D01*
%TO.C,R4*%
X59880833Y-148662380D02*
X59547500Y-148186190D01*
X59309404Y-148662380D02*
X59309404Y-147662380D01*
X59690357Y-147662380D01*
X59785595Y-147710000D01*
X59833214Y-147757619D01*
X59880833Y-147852857D01*
X59880833Y-147995714D01*
X59833214Y-148090952D01*
X59785595Y-148138571D01*
X59690357Y-148186190D01*
X59309404Y-148186190D01*
X60737976Y-147995714D02*
X60737976Y-148662380D01*
X60499880Y-147614761D02*
X60261785Y-148329047D01*
X60880833Y-148329047D01*
%TO.C,J5*%
X66976666Y-164832380D02*
X66976666Y-165546666D01*
X66929047Y-165689523D01*
X66833809Y-165784761D01*
X66690952Y-165832380D01*
X66595714Y-165832380D01*
X67929047Y-164832380D02*
X67452857Y-164832380D01*
X67405238Y-165308571D01*
X67452857Y-165260952D01*
X67548095Y-165213333D01*
X67786190Y-165213333D01*
X67881428Y-165260952D01*
X67929047Y-165308571D01*
X67976666Y-165403809D01*
X67976666Y-165641904D01*
X67929047Y-165737142D01*
X67881428Y-165784761D01*
X67786190Y-165832380D01*
X67548095Y-165832380D01*
X67452857Y-165784761D01*
X67405238Y-165737142D01*
%TO.C,D2*%
X55141904Y-121952380D02*
X55141904Y-120952380D01*
X55380000Y-120952380D01*
X55522857Y-121000000D01*
X55618095Y-121095238D01*
X55665714Y-121190476D01*
X55713333Y-121380952D01*
X55713333Y-121523809D01*
X55665714Y-121714285D01*
X55618095Y-121809523D01*
X55522857Y-121904761D01*
X55380000Y-121952380D01*
X55141904Y-121952380D01*
X56094285Y-121047619D02*
X56141904Y-121000000D01*
X56237142Y-120952380D01*
X56475238Y-120952380D01*
X56570476Y-121000000D01*
X56618095Y-121047619D01*
X56665714Y-121142857D01*
X56665714Y-121238095D01*
X56618095Y-121380952D01*
X56046666Y-121952380D01*
X56665714Y-121952380D01*
%TO.C,R5*%
X61032380Y-146216666D02*
X60556190Y-146550000D01*
X61032380Y-146788095D02*
X60032380Y-146788095D01*
X60032380Y-146407142D01*
X60080000Y-146311904D01*
X60127619Y-146264285D01*
X60222857Y-146216666D01*
X60365714Y-146216666D01*
X60460952Y-146264285D01*
X60508571Y-146311904D01*
X60556190Y-146407142D01*
X60556190Y-146788095D01*
X60032380Y-145311904D02*
X60032380Y-145788095D01*
X60508571Y-145835714D01*
X60460952Y-145788095D01*
X60413333Y-145692857D01*
X60413333Y-145454761D01*
X60460952Y-145359523D01*
X60508571Y-145311904D01*
X60603809Y-145264285D01*
X60841904Y-145264285D01*
X60937142Y-145311904D01*
X60984761Y-145359523D01*
X61032380Y-145454761D01*
X61032380Y-145692857D01*
X60984761Y-145788095D01*
X60937142Y-145835714D01*
%TO.C,R3*%
X84565833Y-125292380D02*
X84232500Y-124816190D01*
X83994404Y-125292380D02*
X83994404Y-124292380D01*
X84375357Y-124292380D01*
X84470595Y-124340000D01*
X84518214Y-124387619D01*
X84565833Y-124482857D01*
X84565833Y-124625714D01*
X84518214Y-124720952D01*
X84470595Y-124768571D01*
X84375357Y-124816190D01*
X83994404Y-124816190D01*
X84899166Y-124292380D02*
X85518214Y-124292380D01*
X85184880Y-124673333D01*
X85327738Y-124673333D01*
X85422976Y-124720952D01*
X85470595Y-124768571D01*
X85518214Y-124863809D01*
X85518214Y-125101904D01*
X85470595Y-125197142D01*
X85422976Y-125244761D01*
X85327738Y-125292380D01*
X85042023Y-125292380D01*
X84946785Y-125244761D01*
X84899166Y-125197142D01*
%TO.C,Q6*%
X57324761Y-121157619D02*
X57229523Y-121110000D01*
X57134285Y-121014761D01*
X56991428Y-120871904D01*
X56896190Y-120824285D01*
X56800952Y-120824285D01*
X56848571Y-121062380D02*
X56753333Y-121014761D01*
X56658095Y-120919523D01*
X56610476Y-120729047D01*
X56610476Y-120395714D01*
X56658095Y-120205238D01*
X56753333Y-120110000D01*
X56848571Y-120062380D01*
X57039047Y-120062380D01*
X57134285Y-120110000D01*
X57229523Y-120205238D01*
X57277142Y-120395714D01*
X57277142Y-120729047D01*
X57229523Y-120919523D01*
X57134285Y-121014761D01*
X57039047Y-121062380D01*
X56848571Y-121062380D01*
X58134285Y-120062380D02*
X57943809Y-120062380D01*
X57848571Y-120110000D01*
X57800952Y-120157619D01*
X57705714Y-120300476D01*
X57658095Y-120490952D01*
X57658095Y-120871904D01*
X57705714Y-120967142D01*
X57753333Y-121014761D01*
X57848571Y-121062380D01*
X58039047Y-121062380D01*
X58134285Y-121014761D01*
X58181904Y-120967142D01*
X58229523Y-120871904D01*
X58229523Y-120633809D01*
X58181904Y-120538571D01*
X58134285Y-120490952D01*
X58039047Y-120443333D01*
X57848571Y-120443333D01*
X57753333Y-120490952D01*
X57705714Y-120538571D01*
X57658095Y-120633809D01*
%TO.C,J4*%
X91106666Y-149592380D02*
X91106666Y-150306666D01*
X91059047Y-150449523D01*
X90963809Y-150544761D01*
X90820952Y-150592380D01*
X90725714Y-150592380D01*
X92011428Y-149925714D02*
X92011428Y-150592380D01*
X91773333Y-149544761D02*
X91535238Y-150259047D01*
X92154285Y-150259047D01*
%TO.C,R9*%
X87105833Y-151962380D02*
X86772500Y-151486190D01*
X86534404Y-151962380D02*
X86534404Y-150962380D01*
X86915357Y-150962380D01*
X87010595Y-151010000D01*
X87058214Y-151057619D01*
X87105833Y-151152857D01*
X87105833Y-151295714D01*
X87058214Y-151390952D01*
X87010595Y-151438571D01*
X86915357Y-151486190D01*
X86534404Y-151486190D01*
X87582023Y-151962380D02*
X87772500Y-151962380D01*
X87867738Y-151914761D01*
X87915357Y-151867142D01*
X88010595Y-151724285D01*
X88058214Y-151533809D01*
X88058214Y-151152857D01*
X88010595Y-151057619D01*
X87962976Y-151010000D01*
X87867738Y-150962380D01*
X87677261Y-150962380D01*
X87582023Y-151010000D01*
X87534404Y-151057619D01*
X87486785Y-151152857D01*
X87486785Y-151390952D01*
X87534404Y-151486190D01*
X87582023Y-151533809D01*
X87677261Y-151581428D01*
X87867738Y-151581428D01*
X87962976Y-151533809D01*
X88010595Y-151486190D01*
X88058214Y-151390952D01*
%TD*%
M02*
