%TF.GenerationSoftware,KiCad,Pcbnew,(5.1.10)-1*%
%TF.CreationDate,2022-04-24T20:33:29+02:00*%
%TF.ProjectId,eugenio,65756765-6e69-46f2-9e6b-696361645f70,rev?*%
%TF.SameCoordinates,Original*%
%TF.FileFunction,Soldermask,Top*%
%TF.FilePolarity,Negative*%
%FSLAX46Y46*%
G04 Gerber Fmt 4.6, Leading zero omitted, Abs format (unit mm)*
G04 Created by KiCad (PCBNEW (5.1.10)-1) date 2022-04-24 20:33:29*
%MOMM*%
%LPD*%
G01*
G04 APERTURE LIST*
%ADD10C,3.000000*%
%ADD11O,1.700000X1.700000*%
%ADD12R,1.700000X1.700000*%
%ADD13O,2.720000X3.240000*%
%ADD14C,1.800000*%
%ADD15R,1.800000X1.800000*%
%ADD16R,2.000000X2.000000*%
%ADD17C,2.000000*%
%ADD18R,2.000000X3.200000*%
%ADD19O,2.000000X1.905000*%
%ADD20R,2.000000X1.905000*%
%ADD21C,1.700000*%
%ADD22O,1.600000X1.600000*%
%ADD23R,1.600000X1.600000*%
%ADD24R,0.900000X0.800000*%
%ADD25C,0.100000*%
G04 APERTURE END LIST*
%TO.C,J2*%
G36*
G01*
X90240000Y-152860000D02*
X90240000Y-152260000D01*
G75*
G02*
X90540000Y-151960000I300000J0D01*
G01*
X92340000Y-151960000D01*
G75*
G02*
X92640000Y-152260000I0J-300000D01*
G01*
X92640000Y-152860000D01*
G75*
G02*
X92340000Y-153160000I-300000J0D01*
G01*
X90540000Y-153160000D01*
G75*
G02*
X90240000Y-152860000I0J300000D01*
G01*
G37*
G36*
G01*
X90240000Y-161160000D02*
X90240000Y-160560000D01*
G75*
G02*
X90540000Y-160260000I300000J0D01*
G01*
X92340000Y-160260000D01*
G75*
G02*
X92640000Y-160560000I0J-300000D01*
G01*
X92640000Y-161160000D01*
G75*
G02*
X92340000Y-161460000I-300000J0D01*
G01*
X90540000Y-161460000D01*
G75*
G02*
X90240000Y-161160000I0J300000D01*
G01*
G37*
G36*
G01*
X90240000Y-164260000D02*
X90240000Y-163660000D01*
G75*
G02*
X90540000Y-163360000I300000J0D01*
G01*
X92340000Y-163360000D01*
G75*
G02*
X92640000Y-163660000I0J-300000D01*
G01*
X92640000Y-164260000D01*
G75*
G02*
X92340000Y-164560000I-300000J0D01*
G01*
X90540000Y-164560000D01*
G75*
G02*
X90240000Y-164260000I0J300000D01*
G01*
G37*
D10*
X91440000Y-157480000D03*
%TD*%
%TO.C,J1*%
G36*
G01*
X54680000Y-152860000D02*
X54680000Y-152260000D01*
G75*
G02*
X54980000Y-151960000I300000J0D01*
G01*
X56780000Y-151960000D01*
G75*
G02*
X57080000Y-152260000I0J-300000D01*
G01*
X57080000Y-152860000D01*
G75*
G02*
X56780000Y-153160000I-300000J0D01*
G01*
X54980000Y-153160000D01*
G75*
G02*
X54680000Y-152860000I0J300000D01*
G01*
G37*
G36*
G01*
X54680000Y-161160000D02*
X54680000Y-160560000D01*
G75*
G02*
X54980000Y-160260000I300000J0D01*
G01*
X56780000Y-160260000D01*
G75*
G02*
X57080000Y-160560000I0J-300000D01*
G01*
X57080000Y-161160000D01*
G75*
G02*
X56780000Y-161460000I-300000J0D01*
G01*
X54980000Y-161460000D01*
G75*
G02*
X54680000Y-161160000I0J300000D01*
G01*
G37*
G36*
G01*
X54680000Y-164260000D02*
X54680000Y-163660000D01*
G75*
G02*
X54980000Y-163360000I300000J0D01*
G01*
X56780000Y-163360000D01*
G75*
G02*
X57080000Y-163660000I0J-300000D01*
G01*
X57080000Y-164260000D01*
G75*
G02*
X56780000Y-164560000I-300000J0D01*
G01*
X54980000Y-164560000D01*
G75*
G02*
X54680000Y-164260000I0J300000D01*
G01*
G37*
X55880000Y-157480000D03*
%TD*%
%TO.C,U2*%
G36*
G01*
X62390000Y-79872500D02*
X62390000Y-80147500D01*
G75*
G02*
X62252500Y-80285000I-137500J0D01*
G01*
X60527500Y-80285000D01*
G75*
G02*
X60390000Y-80147500I0J137500D01*
G01*
X60390000Y-79872500D01*
G75*
G02*
X60527500Y-79735000I137500J0D01*
G01*
X62252500Y-79735000D01*
G75*
G02*
X62390000Y-79872500I0J-137500D01*
G01*
G37*
G36*
G01*
X62390000Y-78602500D02*
X62390000Y-78877500D01*
G75*
G02*
X62252500Y-79015000I-137500J0D01*
G01*
X60527500Y-79015000D01*
G75*
G02*
X60390000Y-78877500I0J137500D01*
G01*
X60390000Y-78602500D01*
G75*
G02*
X60527500Y-78465000I137500J0D01*
G01*
X62252500Y-78465000D01*
G75*
G02*
X62390000Y-78602500I0J-137500D01*
G01*
G37*
G36*
G01*
X62390000Y-77332500D02*
X62390000Y-77607500D01*
G75*
G02*
X62252500Y-77745000I-137500J0D01*
G01*
X60527500Y-77745000D01*
G75*
G02*
X60390000Y-77607500I0J137500D01*
G01*
X60390000Y-77332500D01*
G75*
G02*
X60527500Y-77195000I137500J0D01*
G01*
X62252500Y-77195000D01*
G75*
G02*
X62390000Y-77332500I0J-137500D01*
G01*
G37*
G36*
G01*
X62390000Y-76062500D02*
X62390000Y-76337500D01*
G75*
G02*
X62252500Y-76475000I-137500J0D01*
G01*
X60527500Y-76475000D01*
G75*
G02*
X60390000Y-76337500I0J137500D01*
G01*
X60390000Y-76062500D01*
G75*
G02*
X60527500Y-75925000I137500J0D01*
G01*
X62252500Y-75925000D01*
G75*
G02*
X62390000Y-76062500I0J-137500D01*
G01*
G37*
G36*
G01*
X62390000Y-74792500D02*
X62390000Y-75067500D01*
G75*
G02*
X62252500Y-75205000I-137500J0D01*
G01*
X60527500Y-75205000D01*
G75*
G02*
X60390000Y-75067500I0J137500D01*
G01*
X60390000Y-74792500D01*
G75*
G02*
X60527500Y-74655000I137500J0D01*
G01*
X62252500Y-74655000D01*
G75*
G02*
X62390000Y-74792500I0J-137500D01*
G01*
G37*
G36*
G01*
X62390000Y-73522500D02*
X62390000Y-73797500D01*
G75*
G02*
X62252500Y-73935000I-137500J0D01*
G01*
X60527500Y-73935000D01*
G75*
G02*
X60390000Y-73797500I0J137500D01*
G01*
X60390000Y-73522500D01*
G75*
G02*
X60527500Y-73385000I137500J0D01*
G01*
X62252500Y-73385000D01*
G75*
G02*
X62390000Y-73522500I0J-137500D01*
G01*
G37*
G36*
G01*
X62390000Y-72252500D02*
X62390000Y-72527500D01*
G75*
G02*
X62252500Y-72665000I-137500J0D01*
G01*
X60527500Y-72665000D01*
G75*
G02*
X60390000Y-72527500I0J137500D01*
G01*
X60390000Y-72252500D01*
G75*
G02*
X60527500Y-72115000I137500J0D01*
G01*
X62252500Y-72115000D01*
G75*
G02*
X62390000Y-72252500I0J-137500D01*
G01*
G37*
G36*
G01*
X62390000Y-70982500D02*
X62390000Y-71257500D01*
G75*
G02*
X62252500Y-71395000I-137500J0D01*
G01*
X60527500Y-71395000D01*
G75*
G02*
X60390000Y-71257500I0J137500D01*
G01*
X60390000Y-70982500D01*
G75*
G02*
X60527500Y-70845000I137500J0D01*
G01*
X62252500Y-70845000D01*
G75*
G02*
X62390000Y-70982500I0J-137500D01*
G01*
G37*
G36*
G01*
X62390000Y-69712500D02*
X62390000Y-69987500D01*
G75*
G02*
X62252500Y-70125000I-137500J0D01*
G01*
X60527500Y-70125000D01*
G75*
G02*
X60390000Y-69987500I0J137500D01*
G01*
X60390000Y-69712500D01*
G75*
G02*
X60527500Y-69575000I137500J0D01*
G01*
X62252500Y-69575000D01*
G75*
G02*
X62390000Y-69712500I0J-137500D01*
G01*
G37*
G36*
G01*
X62390000Y-68442500D02*
X62390000Y-68717500D01*
G75*
G02*
X62252500Y-68855000I-137500J0D01*
G01*
X60527500Y-68855000D01*
G75*
G02*
X60390000Y-68717500I0J137500D01*
G01*
X60390000Y-68442500D01*
G75*
G02*
X60527500Y-68305000I137500J0D01*
G01*
X62252500Y-68305000D01*
G75*
G02*
X62390000Y-68442500I0J-137500D01*
G01*
G37*
G36*
G01*
X62390000Y-67172500D02*
X62390000Y-67447500D01*
G75*
G02*
X62252500Y-67585000I-137500J0D01*
G01*
X60527500Y-67585000D01*
G75*
G02*
X60390000Y-67447500I0J137500D01*
G01*
X60390000Y-67172500D01*
G75*
G02*
X60527500Y-67035000I137500J0D01*
G01*
X62252500Y-67035000D01*
G75*
G02*
X62390000Y-67172500I0J-137500D01*
G01*
G37*
G36*
G01*
X62390000Y-65902500D02*
X62390000Y-66177500D01*
G75*
G02*
X62252500Y-66315000I-137500J0D01*
G01*
X60527500Y-66315000D01*
G75*
G02*
X60390000Y-66177500I0J137500D01*
G01*
X60390000Y-65902500D01*
G75*
G02*
X60527500Y-65765000I137500J0D01*
G01*
X62252500Y-65765000D01*
G75*
G02*
X62390000Y-65902500I0J-137500D01*
G01*
G37*
G36*
G01*
X71690000Y-65902500D02*
X71690000Y-66177500D01*
G75*
G02*
X71552500Y-66315000I-137500J0D01*
G01*
X69827500Y-66315000D01*
G75*
G02*
X69690000Y-66177500I0J137500D01*
G01*
X69690000Y-65902500D01*
G75*
G02*
X69827500Y-65765000I137500J0D01*
G01*
X71552500Y-65765000D01*
G75*
G02*
X71690000Y-65902500I0J-137500D01*
G01*
G37*
G36*
G01*
X71690000Y-67172500D02*
X71690000Y-67447500D01*
G75*
G02*
X71552500Y-67585000I-137500J0D01*
G01*
X69827500Y-67585000D01*
G75*
G02*
X69690000Y-67447500I0J137500D01*
G01*
X69690000Y-67172500D01*
G75*
G02*
X69827500Y-67035000I137500J0D01*
G01*
X71552500Y-67035000D01*
G75*
G02*
X71690000Y-67172500I0J-137500D01*
G01*
G37*
G36*
G01*
X71690000Y-68442500D02*
X71690000Y-68717500D01*
G75*
G02*
X71552500Y-68855000I-137500J0D01*
G01*
X69827500Y-68855000D01*
G75*
G02*
X69690000Y-68717500I0J137500D01*
G01*
X69690000Y-68442500D01*
G75*
G02*
X69827500Y-68305000I137500J0D01*
G01*
X71552500Y-68305000D01*
G75*
G02*
X71690000Y-68442500I0J-137500D01*
G01*
G37*
G36*
G01*
X71690000Y-69712500D02*
X71690000Y-69987500D01*
G75*
G02*
X71552500Y-70125000I-137500J0D01*
G01*
X69827500Y-70125000D01*
G75*
G02*
X69690000Y-69987500I0J137500D01*
G01*
X69690000Y-69712500D01*
G75*
G02*
X69827500Y-69575000I137500J0D01*
G01*
X71552500Y-69575000D01*
G75*
G02*
X71690000Y-69712500I0J-137500D01*
G01*
G37*
G36*
G01*
X71690000Y-70982500D02*
X71690000Y-71257500D01*
G75*
G02*
X71552500Y-71395000I-137500J0D01*
G01*
X69827500Y-71395000D01*
G75*
G02*
X69690000Y-71257500I0J137500D01*
G01*
X69690000Y-70982500D01*
G75*
G02*
X69827500Y-70845000I137500J0D01*
G01*
X71552500Y-70845000D01*
G75*
G02*
X71690000Y-70982500I0J-137500D01*
G01*
G37*
G36*
G01*
X71690000Y-72252500D02*
X71690000Y-72527500D01*
G75*
G02*
X71552500Y-72665000I-137500J0D01*
G01*
X69827500Y-72665000D01*
G75*
G02*
X69690000Y-72527500I0J137500D01*
G01*
X69690000Y-72252500D01*
G75*
G02*
X69827500Y-72115000I137500J0D01*
G01*
X71552500Y-72115000D01*
G75*
G02*
X71690000Y-72252500I0J-137500D01*
G01*
G37*
G36*
G01*
X71690000Y-73522500D02*
X71690000Y-73797500D01*
G75*
G02*
X71552500Y-73935000I-137500J0D01*
G01*
X69827500Y-73935000D01*
G75*
G02*
X69690000Y-73797500I0J137500D01*
G01*
X69690000Y-73522500D01*
G75*
G02*
X69827500Y-73385000I137500J0D01*
G01*
X71552500Y-73385000D01*
G75*
G02*
X71690000Y-73522500I0J-137500D01*
G01*
G37*
G36*
G01*
X71690000Y-74792500D02*
X71690000Y-75067500D01*
G75*
G02*
X71552500Y-75205000I-137500J0D01*
G01*
X69827500Y-75205000D01*
G75*
G02*
X69690000Y-75067500I0J137500D01*
G01*
X69690000Y-74792500D01*
G75*
G02*
X69827500Y-74655000I137500J0D01*
G01*
X71552500Y-74655000D01*
G75*
G02*
X71690000Y-74792500I0J-137500D01*
G01*
G37*
G36*
G01*
X71690000Y-76062500D02*
X71690000Y-76337500D01*
G75*
G02*
X71552500Y-76475000I-137500J0D01*
G01*
X69827500Y-76475000D01*
G75*
G02*
X69690000Y-76337500I0J137500D01*
G01*
X69690000Y-76062500D01*
G75*
G02*
X69827500Y-75925000I137500J0D01*
G01*
X71552500Y-75925000D01*
G75*
G02*
X71690000Y-76062500I0J-137500D01*
G01*
G37*
G36*
G01*
X71690000Y-77332500D02*
X71690000Y-77607500D01*
G75*
G02*
X71552500Y-77745000I-137500J0D01*
G01*
X69827500Y-77745000D01*
G75*
G02*
X69690000Y-77607500I0J137500D01*
G01*
X69690000Y-77332500D01*
G75*
G02*
X69827500Y-77195000I137500J0D01*
G01*
X71552500Y-77195000D01*
G75*
G02*
X71690000Y-77332500I0J-137500D01*
G01*
G37*
G36*
G01*
X71690000Y-78602500D02*
X71690000Y-78877500D01*
G75*
G02*
X71552500Y-79015000I-137500J0D01*
G01*
X69827500Y-79015000D01*
G75*
G02*
X69690000Y-78877500I0J137500D01*
G01*
X69690000Y-78602500D01*
G75*
G02*
X69827500Y-78465000I137500J0D01*
G01*
X71552500Y-78465000D01*
G75*
G02*
X71690000Y-78602500I0J-137500D01*
G01*
G37*
G36*
G01*
X71690000Y-79872500D02*
X71690000Y-80147500D01*
G75*
G02*
X71552500Y-80285000I-137500J0D01*
G01*
X69827500Y-80285000D01*
G75*
G02*
X69690000Y-80147500I0J137500D01*
G01*
X69690000Y-79872500D01*
G75*
G02*
X69827500Y-79735000I137500J0D01*
G01*
X71552500Y-79735000D01*
G75*
G02*
X71690000Y-79872500I0J-137500D01*
G01*
G37*
%TD*%
D11*
%TO.C,J8*%
X82550000Y-86360000D03*
X80010000Y-86360000D03*
X77470000Y-86360000D03*
X74930000Y-86360000D03*
X72390000Y-86360000D03*
X69850000Y-86360000D03*
X67310000Y-86360000D03*
D12*
X64770000Y-86360000D03*
%TD*%
%TO.C,C3*%
G36*
G01*
X83345000Y-143960000D02*
X84295000Y-143960000D01*
G75*
G02*
X84545000Y-144210000I0J-250000D01*
G01*
X84545000Y-144710000D01*
G75*
G02*
X84295000Y-144960000I-250000J0D01*
G01*
X83345000Y-144960000D01*
G75*
G02*
X83095000Y-144710000I0J250000D01*
G01*
X83095000Y-144210000D01*
G75*
G02*
X83345000Y-143960000I250000J0D01*
G01*
G37*
G36*
G01*
X83345000Y-142060000D02*
X84295000Y-142060000D01*
G75*
G02*
X84545000Y-142310000I0J-250000D01*
G01*
X84545000Y-142810000D01*
G75*
G02*
X84295000Y-143060000I-250000J0D01*
G01*
X83345000Y-143060000D01*
G75*
G02*
X83095000Y-142810000I0J250000D01*
G01*
X83095000Y-142310000D01*
G75*
G02*
X83345000Y-142060000I250000J0D01*
G01*
G37*
%TD*%
%TO.C,R24*%
G36*
G01*
X53297500Y-118929998D02*
X53297500Y-119830002D01*
G75*
G02*
X53047502Y-120080000I-249998J0D01*
G01*
X52522498Y-120080000D01*
G75*
G02*
X52272500Y-119830002I0J249998D01*
G01*
X52272500Y-118929998D01*
G75*
G02*
X52522498Y-118680000I249998J0D01*
G01*
X53047502Y-118680000D01*
G75*
G02*
X53297500Y-118929998I0J-249998D01*
G01*
G37*
G36*
G01*
X55122500Y-118929998D02*
X55122500Y-119830002D01*
G75*
G02*
X54872502Y-120080000I-249998J0D01*
G01*
X54347498Y-120080000D01*
G75*
G02*
X54097500Y-119830002I0J249998D01*
G01*
X54097500Y-118929998D01*
G75*
G02*
X54347498Y-118680000I249998J0D01*
G01*
X54872502Y-118680000D01*
G75*
G02*
X55122500Y-118929998I0J-249998D01*
G01*
G37*
%TD*%
%TO.C,R22*%
G36*
G01*
X70250000Y-150310002D02*
X70250000Y-149409998D01*
G75*
G02*
X70499998Y-149160000I249998J0D01*
G01*
X71025002Y-149160000D01*
G75*
G02*
X71275000Y-149409998I0J-249998D01*
G01*
X71275000Y-150310002D01*
G75*
G02*
X71025002Y-150560000I-249998J0D01*
G01*
X70499998Y-150560000D01*
G75*
G02*
X70250000Y-150310002I0J249998D01*
G01*
G37*
G36*
G01*
X68425000Y-150310002D02*
X68425000Y-149409998D01*
G75*
G02*
X68674998Y-149160000I249998J0D01*
G01*
X69200002Y-149160000D01*
G75*
G02*
X69450000Y-149409998I0J-249998D01*
G01*
X69450000Y-150310002D01*
G75*
G02*
X69200002Y-150560000I-249998J0D01*
G01*
X68674998Y-150560000D01*
G75*
G02*
X68425000Y-150310002I0J249998D01*
G01*
G37*
%TD*%
D13*
%TO.C,RV1*%
X68860000Y-124580000D03*
X78460000Y-124580000D03*
D14*
X76160000Y-132080000D03*
X73660000Y-132080000D03*
D15*
X71160000Y-132080000D03*
%TD*%
%TO.C,R16*%
G36*
G01*
X77920002Y-145650000D02*
X77019998Y-145650000D01*
G75*
G02*
X76770000Y-145400002I0J249998D01*
G01*
X76770000Y-144874998D01*
G75*
G02*
X77019998Y-144625000I249998J0D01*
G01*
X77920002Y-144625000D01*
G75*
G02*
X78170000Y-144874998I0J-249998D01*
G01*
X78170000Y-145400002D01*
G75*
G02*
X77920002Y-145650000I-249998J0D01*
G01*
G37*
G36*
G01*
X77920002Y-147475000D02*
X77019998Y-147475000D01*
G75*
G02*
X76770000Y-147225002I0J249998D01*
G01*
X76770000Y-146699998D01*
G75*
G02*
X77019998Y-146450000I249998J0D01*
G01*
X77920002Y-146450000D01*
G75*
G02*
X78170000Y-146699998I0J-249998D01*
G01*
X78170000Y-147225002D01*
G75*
G02*
X77920002Y-147475000I-249998J0D01*
G01*
G37*
%TD*%
%TO.C,R15*%
G36*
G01*
X77070000Y-149409998D02*
X77070000Y-150310002D01*
G75*
G02*
X76820002Y-150560000I-249998J0D01*
G01*
X76294998Y-150560000D01*
G75*
G02*
X76045000Y-150310002I0J249998D01*
G01*
X76045000Y-149409998D01*
G75*
G02*
X76294998Y-149160000I249998J0D01*
G01*
X76820002Y-149160000D01*
G75*
G02*
X77070000Y-149409998I0J-249998D01*
G01*
G37*
G36*
G01*
X78895000Y-149409998D02*
X78895000Y-150310002D01*
G75*
G02*
X78645002Y-150560000I-249998J0D01*
G01*
X78119998Y-150560000D01*
G75*
G02*
X77870000Y-150310002I0J249998D01*
G01*
X77870000Y-149409998D01*
G75*
G02*
X78119998Y-149160000I249998J0D01*
G01*
X78645002Y-149160000D01*
G75*
G02*
X78895000Y-149409998I0J-249998D01*
G01*
G37*
%TD*%
%TO.C,D1*%
G36*
G01*
X94555000Y-131610000D02*
X93405000Y-131610000D01*
G75*
G02*
X93155000Y-131360000I0J250000D01*
G01*
X93155000Y-130260000D01*
G75*
G02*
X93405000Y-130010000I250000J0D01*
G01*
X94555000Y-130010000D01*
G75*
G02*
X94805000Y-130260000I0J-250000D01*
G01*
X94805000Y-131360000D01*
G75*
G02*
X94555000Y-131610000I-250000J0D01*
G01*
G37*
G36*
G01*
X94555000Y-134460000D02*
X93405000Y-134460000D01*
G75*
G02*
X93155000Y-134210000I0J250000D01*
G01*
X93155000Y-133110000D01*
G75*
G02*
X93405000Y-132860000I250000J0D01*
G01*
X94555000Y-132860000D01*
G75*
G02*
X94805000Y-133110000I0J-250000D01*
G01*
X94805000Y-134210000D01*
G75*
G02*
X94555000Y-134460000I-250000J0D01*
G01*
G37*
%TD*%
%TO.C,D5*%
G36*
G01*
X84445000Y-79315000D02*
X84445000Y-78165000D01*
G75*
G02*
X84695000Y-77915000I250000J0D01*
G01*
X85795000Y-77915000D01*
G75*
G02*
X86045000Y-78165000I0J-250000D01*
G01*
X86045000Y-79315000D01*
G75*
G02*
X85795000Y-79565000I-250000J0D01*
G01*
X84695000Y-79565000D01*
G75*
G02*
X84445000Y-79315000I0J250000D01*
G01*
G37*
G36*
G01*
X81595000Y-79315000D02*
X81595000Y-78165000D01*
G75*
G02*
X81845000Y-77915000I250000J0D01*
G01*
X82945000Y-77915000D01*
G75*
G02*
X83195000Y-78165000I0J-250000D01*
G01*
X83195000Y-79315000D01*
G75*
G02*
X82945000Y-79565000I-250000J0D01*
G01*
X81845000Y-79565000D01*
G75*
G02*
X81595000Y-79315000I0J250000D01*
G01*
G37*
%TD*%
D16*
%TO.C,SW3*%
X86360000Y-109220000D03*
D17*
X88860000Y-109220000D03*
X91360000Y-109220000D03*
D18*
X83260000Y-101720000D03*
X94460000Y-101720000D03*
D17*
X86360000Y-94720000D03*
X91360000Y-94720000D03*
%TD*%
%TO.C,D4*%
G36*
G01*
X60470000Y-133925000D02*
X60470000Y-132775000D01*
G75*
G02*
X60720000Y-132525000I250000J0D01*
G01*
X61820000Y-132525000D01*
G75*
G02*
X62070000Y-132775000I0J-250000D01*
G01*
X62070000Y-133925000D01*
G75*
G02*
X61820000Y-134175000I-250000J0D01*
G01*
X60720000Y-134175000D01*
G75*
G02*
X60470000Y-133925000I0J250000D01*
G01*
G37*
G36*
G01*
X57620000Y-133925000D02*
X57620000Y-132775000D01*
G75*
G02*
X57870000Y-132525000I250000J0D01*
G01*
X58970000Y-132525000D01*
G75*
G02*
X59220000Y-132775000I0J-250000D01*
G01*
X59220000Y-133925000D01*
G75*
G02*
X58970000Y-134175000I-250000J0D01*
G01*
X57870000Y-134175000D01*
G75*
G02*
X57620000Y-133925000I0J250000D01*
G01*
G37*
%TD*%
D16*
%TO.C,SW2*%
X71160000Y-109132663D03*
D17*
X73660000Y-109132663D03*
X76160000Y-109132663D03*
D18*
X68060000Y-101632663D03*
X79260000Y-101632663D03*
D17*
X71160000Y-94632663D03*
X76160000Y-94632663D03*
%TD*%
%TO.C,R25*%
G36*
G01*
X54097500Y-116020002D02*
X54097500Y-115119998D01*
G75*
G02*
X54347498Y-114870000I249998J0D01*
G01*
X54872502Y-114870000D01*
G75*
G02*
X55122500Y-115119998I0J-249998D01*
G01*
X55122500Y-116020002D01*
G75*
G02*
X54872502Y-116270000I-249998J0D01*
G01*
X54347498Y-116270000D01*
G75*
G02*
X54097500Y-116020002I0J249998D01*
G01*
G37*
G36*
G01*
X52272500Y-116020002D02*
X52272500Y-115119998D01*
G75*
G02*
X52522498Y-114870000I249998J0D01*
G01*
X53047502Y-114870000D01*
G75*
G02*
X53297500Y-115119998I0J-249998D01*
G01*
X53297500Y-116020002D01*
G75*
G02*
X53047502Y-116270000I-249998J0D01*
G01*
X52522498Y-116270000D01*
G75*
G02*
X52272500Y-116020002I0J249998D01*
G01*
G37*
%TD*%
%TO.C,C1*%
G36*
G01*
X83025000Y-82100000D02*
X82075000Y-82100000D01*
G75*
G02*
X81825000Y-81850000I0J250000D01*
G01*
X81825000Y-81350000D01*
G75*
G02*
X82075000Y-81100000I250000J0D01*
G01*
X83025000Y-81100000D01*
G75*
G02*
X83275000Y-81350000I0J-250000D01*
G01*
X83275000Y-81850000D01*
G75*
G02*
X83025000Y-82100000I-250000J0D01*
G01*
G37*
G36*
G01*
X83025000Y-84000000D02*
X82075000Y-84000000D01*
G75*
G02*
X81825000Y-83750000I0J250000D01*
G01*
X81825000Y-83250000D01*
G75*
G02*
X82075000Y-83000000I250000J0D01*
G01*
X83025000Y-83000000D01*
G75*
G02*
X83275000Y-83250000I0J-250000D01*
G01*
X83275000Y-83750000D01*
G75*
G02*
X83025000Y-84000000I-250000J0D01*
G01*
G37*
%TD*%
D19*
%TO.C,U1*%
X78740000Y-76200000D03*
X78740000Y-78740000D03*
D20*
X78740000Y-81280000D03*
%TD*%
%TO.C,C2*%
G36*
G01*
X82075000Y-75380000D02*
X83025000Y-75380000D01*
G75*
G02*
X83275000Y-75630000I0J-250000D01*
G01*
X83275000Y-76130000D01*
G75*
G02*
X83025000Y-76380000I-250000J0D01*
G01*
X82075000Y-76380000D01*
G75*
G02*
X81825000Y-76130000I0J250000D01*
G01*
X81825000Y-75630000D01*
G75*
G02*
X82075000Y-75380000I250000J0D01*
G01*
G37*
G36*
G01*
X82075000Y-73480000D02*
X83025000Y-73480000D01*
G75*
G02*
X83275000Y-73730000I0J-250000D01*
G01*
X83275000Y-74230000D01*
G75*
G02*
X83025000Y-74480000I-250000J0D01*
G01*
X82075000Y-74480000D01*
G75*
G02*
X81825000Y-74230000I0J250000D01*
G01*
X81825000Y-73730000D01*
G75*
G02*
X82075000Y-73480000I250000J0D01*
G01*
G37*
%TD*%
%TO.C,C4*%
G36*
G01*
X75970000Y-138980000D02*
X75970000Y-137880000D01*
G75*
G02*
X76220000Y-137630000I250000J0D01*
G01*
X78720000Y-137630000D01*
G75*
G02*
X78970000Y-137880000I0J-250000D01*
G01*
X78970000Y-138980000D01*
G75*
G02*
X78720000Y-139230000I-250000J0D01*
G01*
X76220000Y-139230000D01*
G75*
G02*
X75970000Y-138980000I0J250000D01*
G01*
G37*
G36*
G01*
X71570000Y-138980000D02*
X71570000Y-137880000D01*
G75*
G02*
X71820000Y-137630000I250000J0D01*
G01*
X74320000Y-137630000D01*
G75*
G02*
X74570000Y-137880000I0J-250000D01*
G01*
X74570000Y-138980000D01*
G75*
G02*
X74320000Y-139230000I-250000J0D01*
G01*
X71820000Y-139230000D01*
G75*
G02*
X71570000Y-138980000I0J250000D01*
G01*
G37*
%TD*%
%TO.C,R27*%
G36*
G01*
X59732500Y-129990002D02*
X59732500Y-129089998D01*
G75*
G02*
X59982498Y-128840000I249998J0D01*
G01*
X60507502Y-128840000D01*
G75*
G02*
X60757500Y-129089998I0J-249998D01*
G01*
X60757500Y-129990002D01*
G75*
G02*
X60507502Y-130240000I-249998J0D01*
G01*
X59982498Y-130240000D01*
G75*
G02*
X59732500Y-129990002I0J249998D01*
G01*
G37*
G36*
G01*
X57907500Y-129990002D02*
X57907500Y-129089998D01*
G75*
G02*
X58157498Y-128840000I249998J0D01*
G01*
X58682502Y-128840000D01*
G75*
G02*
X58932500Y-129089998I0J-249998D01*
G01*
X58932500Y-129990002D01*
G75*
G02*
X58682502Y-130240000I-249998J0D01*
G01*
X58157498Y-130240000D01*
G75*
G02*
X57907500Y-129990002I0J249998D01*
G01*
G37*
%TD*%
D21*
%TO.C,J6*%
X92710000Y-66040000D03*
X92710000Y-68580000D03*
X92710000Y-71120000D03*
X92710000Y-73660000D03*
X92710000Y-76200000D03*
X92710000Y-78740000D03*
X92710000Y-81280000D03*
X92710000Y-83820000D03*
X90170000Y-66040000D03*
X90170000Y-68580000D03*
X90170000Y-71120000D03*
X90170000Y-73660000D03*
X90170000Y-76200000D03*
X90170000Y-78740000D03*
X90170000Y-81280000D03*
G36*
G01*
X89320000Y-84420000D02*
X89320000Y-83220000D01*
G75*
G02*
X89570000Y-82970000I250000J0D01*
G01*
X90770000Y-82970000D01*
G75*
G02*
X91020000Y-83220000I0J-250000D01*
G01*
X91020000Y-84420000D01*
G75*
G02*
X90770000Y-84670000I-250000J0D01*
G01*
X89570000Y-84670000D01*
G75*
G02*
X89320000Y-84420000I0J250000D01*
G01*
G37*
%TD*%
%TO.C,C8*%
G36*
G01*
X84295000Y-68130000D02*
X83345000Y-68130000D01*
G75*
G02*
X83095000Y-67880000I0J250000D01*
G01*
X83095000Y-67380000D01*
G75*
G02*
X83345000Y-67130000I250000J0D01*
G01*
X84295000Y-67130000D01*
G75*
G02*
X84545000Y-67380000I0J-250000D01*
G01*
X84545000Y-67880000D01*
G75*
G02*
X84295000Y-68130000I-250000J0D01*
G01*
G37*
G36*
G01*
X84295000Y-70030000D02*
X83345000Y-70030000D01*
G75*
G02*
X83095000Y-69780000I0J250000D01*
G01*
X83095000Y-69280000D01*
G75*
G02*
X83345000Y-69030000I250000J0D01*
G01*
X84295000Y-69030000D01*
G75*
G02*
X84545000Y-69280000I0J-250000D01*
G01*
X84545000Y-69780000D01*
G75*
G02*
X84295000Y-70030000I-250000J0D01*
G01*
G37*
%TD*%
%TO.C,R28*%
G36*
G01*
X56637500Y-71570002D02*
X56637500Y-70669998D01*
G75*
G02*
X56887498Y-70420000I249998J0D01*
G01*
X57412502Y-70420000D01*
G75*
G02*
X57662500Y-70669998I0J-249998D01*
G01*
X57662500Y-71570002D01*
G75*
G02*
X57412502Y-71820000I-249998J0D01*
G01*
X56887498Y-71820000D01*
G75*
G02*
X56637500Y-71570002I0J249998D01*
G01*
G37*
G36*
G01*
X54812500Y-71570002D02*
X54812500Y-70669998D01*
G75*
G02*
X55062498Y-70420000I249998J0D01*
G01*
X55587502Y-70420000D01*
G75*
G02*
X55837500Y-70669998I0J-249998D01*
G01*
X55837500Y-71570002D01*
G75*
G02*
X55587502Y-71820000I-249998J0D01*
G01*
X55062498Y-71820000D01*
G75*
G02*
X54812500Y-71570002I0J249998D01*
G01*
G37*
%TD*%
%TO.C,C7*%
G36*
G01*
X54060000Y-81640000D02*
X55160000Y-81640000D01*
G75*
G02*
X55410000Y-81890000I0J-250000D01*
G01*
X55410000Y-84390000D01*
G75*
G02*
X55160000Y-84640000I-250000J0D01*
G01*
X54060000Y-84640000D01*
G75*
G02*
X53810000Y-84390000I0J250000D01*
G01*
X53810000Y-81890000D01*
G75*
G02*
X54060000Y-81640000I250000J0D01*
G01*
G37*
G36*
G01*
X54060000Y-77240000D02*
X55160000Y-77240000D01*
G75*
G02*
X55410000Y-77490000I0J-250000D01*
G01*
X55410000Y-79990000D01*
G75*
G02*
X55160000Y-80240000I-250000J0D01*
G01*
X54060000Y-80240000D01*
G75*
G02*
X53810000Y-79990000I0J250000D01*
G01*
X53810000Y-77490000D01*
G75*
G02*
X54060000Y-77240000I250000J0D01*
G01*
G37*
%TD*%
D17*
%TO.C,SW4*%
X93693545Y-127683950D03*
X89193545Y-127683950D03*
X93693545Y-121183950D03*
X89193545Y-121183950D03*
%TD*%
%TO.C,R26*%
G36*
G01*
X53852500Y-132899998D02*
X53852500Y-133800002D01*
G75*
G02*
X53602502Y-134050000I-249998J0D01*
G01*
X53077498Y-134050000D01*
G75*
G02*
X52827500Y-133800002I0J249998D01*
G01*
X52827500Y-132899998D01*
G75*
G02*
X53077498Y-132650000I249998J0D01*
G01*
X53602502Y-132650000D01*
G75*
G02*
X53852500Y-132899998I0J-249998D01*
G01*
G37*
G36*
G01*
X55677500Y-132899998D02*
X55677500Y-133800002D01*
G75*
G02*
X55427502Y-134050000I-249998J0D01*
G01*
X54902498Y-134050000D01*
G75*
G02*
X54652500Y-133800002I0J249998D01*
G01*
X54652500Y-132899998D01*
G75*
G02*
X54902498Y-132650000I249998J0D01*
G01*
X55427502Y-132650000D01*
G75*
G02*
X55677500Y-132899998I0J-249998D01*
G01*
G37*
%TD*%
%TO.C,R20*%
G36*
G01*
X90127500Y-132899998D02*
X90127500Y-133800002D01*
G75*
G02*
X89877502Y-134050000I-249998J0D01*
G01*
X89352498Y-134050000D01*
G75*
G02*
X89102500Y-133800002I0J249998D01*
G01*
X89102500Y-132899998D01*
G75*
G02*
X89352498Y-132650000I249998J0D01*
G01*
X89877502Y-132650000D01*
G75*
G02*
X90127500Y-132899998I0J-249998D01*
G01*
G37*
G36*
G01*
X91952500Y-132899998D02*
X91952500Y-133800002D01*
G75*
G02*
X91702502Y-134050000I-249998J0D01*
G01*
X91177498Y-134050000D01*
G75*
G02*
X90927500Y-133800002I0J249998D01*
G01*
X90927500Y-132899998D01*
G75*
G02*
X91177498Y-132650000I249998J0D01*
G01*
X91702502Y-132650000D01*
G75*
G02*
X91952500Y-132899998I0J-249998D01*
G01*
G37*
%TD*%
%TO.C,R19*%
G36*
G01*
X84332500Y-125279998D02*
X84332500Y-126180002D01*
G75*
G02*
X84082502Y-126430000I-249998J0D01*
G01*
X83557498Y-126430000D01*
G75*
G02*
X83307500Y-126180002I0J249998D01*
G01*
X83307500Y-125279998D01*
G75*
G02*
X83557498Y-125030000I249998J0D01*
G01*
X84082502Y-125030000D01*
G75*
G02*
X84332500Y-125279998I0J-249998D01*
G01*
G37*
G36*
G01*
X86157500Y-125279998D02*
X86157500Y-126180002D01*
G75*
G02*
X85907502Y-126430000I-249998J0D01*
G01*
X85382498Y-126430000D01*
G75*
G02*
X85132500Y-126180002I0J249998D01*
G01*
X85132500Y-125279998D01*
G75*
G02*
X85382498Y-125030000I249998J0D01*
G01*
X85907502Y-125030000D01*
G75*
G02*
X86157500Y-125279998I0J-249998D01*
G01*
G37*
%TD*%
%TO.C,C6*%
G36*
G01*
X55750000Y-73185000D02*
X55750000Y-74135000D01*
G75*
G02*
X55500000Y-74385000I-250000J0D01*
G01*
X55000000Y-74385000D01*
G75*
G02*
X54750000Y-74135000I0J250000D01*
G01*
X54750000Y-73185000D01*
G75*
G02*
X55000000Y-72935000I250000J0D01*
G01*
X55500000Y-72935000D01*
G75*
G02*
X55750000Y-73185000I0J-250000D01*
G01*
G37*
G36*
G01*
X57650000Y-73185000D02*
X57650000Y-74135000D01*
G75*
G02*
X57400000Y-74385000I-250000J0D01*
G01*
X56900000Y-74385000D01*
G75*
G02*
X56650000Y-74135000I0J250000D01*
G01*
X56650000Y-73185000D01*
G75*
G02*
X56900000Y-72935000I250000J0D01*
G01*
X57400000Y-72935000D01*
G75*
G02*
X57650000Y-73185000I0J-250000D01*
G01*
G37*
%TD*%
D16*
%TO.C,SW1*%
X55880000Y-109220000D03*
D17*
X58380000Y-109220000D03*
X60880000Y-109220000D03*
D18*
X52780000Y-101720000D03*
X63980000Y-101720000D03*
D17*
X55880000Y-94720000D03*
X60880000Y-94720000D03*
%TD*%
%TO.C,R23*%
G36*
G01*
X70300002Y-145650000D02*
X69399998Y-145650000D01*
G75*
G02*
X69150000Y-145400002I0J249998D01*
G01*
X69150000Y-144874998D01*
G75*
G02*
X69399998Y-144625000I249998J0D01*
G01*
X70300002Y-144625000D01*
G75*
G02*
X70550000Y-144874998I0J-249998D01*
G01*
X70550000Y-145400002D01*
G75*
G02*
X70300002Y-145650000I-249998J0D01*
G01*
G37*
G36*
G01*
X70300002Y-147475000D02*
X69399998Y-147475000D01*
G75*
G02*
X69150000Y-147225002I0J249998D01*
G01*
X69150000Y-146699998D01*
G75*
G02*
X69399998Y-146450000I249998J0D01*
G01*
X70300002Y-146450000D01*
G75*
G02*
X70550000Y-146699998I0J-249998D01*
G01*
X70550000Y-147225002D01*
G75*
G02*
X70300002Y-147475000I-249998J0D01*
G01*
G37*
%TD*%
D22*
%TO.C,A1*%
X81280000Y-113030000D03*
X66040000Y-113030000D03*
X81280000Y-148590000D03*
X66040000Y-115570000D03*
X81280000Y-146050000D03*
X66040000Y-118110000D03*
X81280000Y-143510000D03*
X66040000Y-120650000D03*
X81280000Y-140970000D03*
X66040000Y-123190000D03*
X81280000Y-138430000D03*
X66040000Y-125730000D03*
X81280000Y-135890000D03*
X66040000Y-128270000D03*
X81280000Y-133350000D03*
X66040000Y-130810000D03*
X81280000Y-130810000D03*
X66040000Y-133350000D03*
X81280000Y-128270000D03*
X66040000Y-135890000D03*
X81280000Y-125730000D03*
X66040000Y-138430000D03*
X81280000Y-123190000D03*
X66040000Y-140970000D03*
X81280000Y-120650000D03*
X66040000Y-143510000D03*
X81280000Y-118110000D03*
X66040000Y-146050000D03*
X81280000Y-115570000D03*
D23*
X66040000Y-148590000D03*
%TD*%
%TO.C,R21*%
G36*
G01*
X90927500Y-131260002D02*
X90927500Y-130359998D01*
G75*
G02*
X91177498Y-130110000I249998J0D01*
G01*
X91702502Y-130110000D01*
G75*
G02*
X91952500Y-130359998I0J-249998D01*
G01*
X91952500Y-131260002D01*
G75*
G02*
X91702502Y-131510000I-249998J0D01*
G01*
X91177498Y-131510000D01*
G75*
G02*
X90927500Y-131260002I0J249998D01*
G01*
G37*
G36*
G01*
X89102500Y-131260002D02*
X89102500Y-130359998D01*
G75*
G02*
X89352498Y-130110000I249998J0D01*
G01*
X89877502Y-130110000D01*
G75*
G02*
X90127500Y-130359998I0J-249998D01*
G01*
X90127500Y-131260002D01*
G75*
G02*
X89877502Y-131510000I-249998J0D01*
G01*
X89352498Y-131510000D01*
G75*
G02*
X89102500Y-131260002I0J249998D01*
G01*
G37*
%TD*%
%TO.C,D3*%
G36*
G01*
X86935000Y-66685000D02*
X85785000Y-66685000D01*
G75*
G02*
X85535000Y-66435000I0J250000D01*
G01*
X85535000Y-65335000D01*
G75*
G02*
X85785000Y-65085000I250000J0D01*
G01*
X86935000Y-65085000D01*
G75*
G02*
X87185000Y-65335000I0J-250000D01*
G01*
X87185000Y-66435000D01*
G75*
G02*
X86935000Y-66685000I-250000J0D01*
G01*
G37*
G36*
G01*
X86935000Y-69535000D02*
X85785000Y-69535000D01*
G75*
G02*
X85535000Y-69285000I0J250000D01*
G01*
X85535000Y-68185000D01*
G75*
G02*
X85785000Y-67935000I250000J0D01*
G01*
X86935000Y-67935000D01*
G75*
G02*
X87185000Y-68185000I0J-250000D01*
G01*
X87185000Y-69285000D01*
G75*
G02*
X86935000Y-69535000I-250000J0D01*
G01*
G37*
%TD*%
%TO.C,R14*%
G36*
G01*
X84332500Y-127819998D02*
X84332500Y-128720002D01*
G75*
G02*
X84082502Y-128970000I-249998J0D01*
G01*
X83557498Y-128970000D01*
G75*
G02*
X83307500Y-128720002I0J249998D01*
G01*
X83307500Y-127819998D01*
G75*
G02*
X83557498Y-127570000I249998J0D01*
G01*
X84082502Y-127570000D01*
G75*
G02*
X84332500Y-127819998I0J-249998D01*
G01*
G37*
G36*
G01*
X86157500Y-127819998D02*
X86157500Y-128720002D01*
G75*
G02*
X85907502Y-128970000I-249998J0D01*
G01*
X85382498Y-128970000D01*
G75*
G02*
X85132500Y-128720002I0J249998D01*
G01*
X85132500Y-127819998D01*
G75*
G02*
X85382498Y-127570000I249998J0D01*
G01*
X85907502Y-127570000D01*
G75*
G02*
X86157500Y-127819998I0J-249998D01*
G01*
G37*
%TD*%
%TO.C,R18*%
G36*
G01*
X94430002Y-116797500D02*
X93529998Y-116797500D01*
G75*
G02*
X93280000Y-116547502I0J249998D01*
G01*
X93280000Y-116022498D01*
G75*
G02*
X93529998Y-115772500I249998J0D01*
G01*
X94430002Y-115772500D01*
G75*
G02*
X94680000Y-116022498I0J-249998D01*
G01*
X94680000Y-116547502D01*
G75*
G02*
X94430002Y-116797500I-249998J0D01*
G01*
G37*
G36*
G01*
X94430002Y-118622500D02*
X93529998Y-118622500D01*
G75*
G02*
X93280000Y-118372502I0J249998D01*
G01*
X93280000Y-117847498D01*
G75*
G02*
X93529998Y-117597500I249998J0D01*
G01*
X94430002Y-117597500D01*
G75*
G02*
X94680000Y-117847498I0J-249998D01*
G01*
X94680000Y-118372502D01*
G75*
G02*
X94430002Y-118622500I-249998J0D01*
G01*
G37*
%TD*%
%TO.C,R6*%
G36*
G01*
X54210000Y-90989998D02*
X54210000Y-91890002D01*
G75*
G02*
X53960002Y-92140000I-249998J0D01*
G01*
X53434998Y-92140000D01*
G75*
G02*
X53185000Y-91890002I0J249998D01*
G01*
X53185000Y-90989998D01*
G75*
G02*
X53434998Y-90740000I249998J0D01*
G01*
X53960002Y-90740000D01*
G75*
G02*
X54210000Y-90989998I0J-249998D01*
G01*
G37*
G36*
G01*
X56035000Y-90989998D02*
X56035000Y-91890002D01*
G75*
G02*
X55785002Y-92140000I-249998J0D01*
G01*
X55259998Y-92140000D01*
G75*
G02*
X55010000Y-91890002I0J249998D01*
G01*
X55010000Y-90989998D01*
G75*
G02*
X55259998Y-90740000I249998J0D01*
G01*
X55785002Y-90740000D01*
G75*
G02*
X56035000Y-90989998I0J-249998D01*
G01*
G37*
%TD*%
D24*
%TO.C,Q2*%
X72930000Y-114300000D03*
X74930000Y-113350000D03*
X74930000Y-115250000D03*
%TD*%
%TO.C,C5*%
G36*
G01*
X79290000Y-68220000D02*
X78190000Y-68220000D01*
G75*
G02*
X77940000Y-67970000I0J250000D01*
G01*
X77940000Y-65470000D01*
G75*
G02*
X78190000Y-65220000I250000J0D01*
G01*
X79290000Y-65220000D01*
G75*
G02*
X79540000Y-65470000I0J-250000D01*
G01*
X79540000Y-67970000D01*
G75*
G02*
X79290000Y-68220000I-250000J0D01*
G01*
G37*
G36*
G01*
X79290000Y-72620000D02*
X78190000Y-72620000D01*
G75*
G02*
X77940000Y-72370000I0J250000D01*
G01*
X77940000Y-69870000D01*
G75*
G02*
X78190000Y-69620000I250000J0D01*
G01*
X79290000Y-69620000D01*
G75*
G02*
X79540000Y-69870000I0J-250000D01*
G01*
X79540000Y-72370000D01*
G75*
G02*
X79290000Y-72620000I-250000J0D01*
G01*
G37*
%TD*%
%TO.C,R17*%
G36*
G01*
X87117500Y-113480002D02*
X87117500Y-112579998D01*
G75*
G02*
X87367498Y-112330000I249998J0D01*
G01*
X87892502Y-112330000D01*
G75*
G02*
X88142500Y-112579998I0J-249998D01*
G01*
X88142500Y-113480002D01*
G75*
G02*
X87892502Y-113730000I-249998J0D01*
G01*
X87367498Y-113730000D01*
G75*
G02*
X87117500Y-113480002I0J249998D01*
G01*
G37*
G36*
G01*
X85292500Y-113480002D02*
X85292500Y-112579998D01*
G75*
G02*
X85542498Y-112330000I249998J0D01*
G01*
X86067502Y-112330000D01*
G75*
G02*
X86317500Y-112579998I0J-249998D01*
G01*
X86317500Y-113480002D01*
G75*
G02*
X86067502Y-113730000I-249998J0D01*
G01*
X85542498Y-113730000D01*
G75*
G02*
X85292500Y-113480002I0J249998D01*
G01*
G37*
%TD*%
%TO.C,J7*%
G36*
G01*
X54680000Y-137620000D02*
X54680000Y-137020000D01*
G75*
G02*
X54980000Y-136720000I300000J0D01*
G01*
X56780000Y-136720000D01*
G75*
G02*
X57080000Y-137020000I0J-300000D01*
G01*
X57080000Y-137620000D01*
G75*
G02*
X56780000Y-137920000I-300000J0D01*
G01*
X54980000Y-137920000D01*
G75*
G02*
X54680000Y-137620000I0J300000D01*
G01*
G37*
G36*
G01*
X54680000Y-145920000D02*
X54680000Y-145320000D01*
G75*
G02*
X54980000Y-145020000I300000J0D01*
G01*
X56780000Y-145020000D01*
G75*
G02*
X57080000Y-145320000I0J-300000D01*
G01*
X57080000Y-145920000D01*
G75*
G02*
X56780000Y-146220000I-300000J0D01*
G01*
X54980000Y-146220000D01*
G75*
G02*
X54680000Y-145920000I0J300000D01*
G01*
G37*
G36*
G01*
X54680000Y-149020000D02*
X54680000Y-148420000D01*
G75*
G02*
X54980000Y-148120000I300000J0D01*
G01*
X56780000Y-148120000D01*
G75*
G02*
X57080000Y-148420000I0J-300000D01*
G01*
X57080000Y-149020000D01*
G75*
G02*
X56780000Y-149320000I-300000J0D01*
G01*
X54980000Y-149320000D01*
G75*
G02*
X54680000Y-149020000I0J300000D01*
G01*
G37*
D10*
X55880000Y-142240000D03*
%TD*%
D24*
%TO.C,Q4*%
X59960000Y-121920000D03*
X61960000Y-120970000D03*
X61960000Y-122870000D03*
%TD*%
%TO.C,R12*%
G36*
G01*
X90927500Y-91890002D02*
X90927500Y-90989998D01*
G75*
G02*
X91177498Y-90740000I249998J0D01*
G01*
X91702502Y-90740000D01*
G75*
G02*
X91952500Y-90989998I0J-249998D01*
G01*
X91952500Y-91890002D01*
G75*
G02*
X91702502Y-92140000I-249998J0D01*
G01*
X91177498Y-92140000D01*
G75*
G02*
X90927500Y-91890002I0J249998D01*
G01*
G37*
G36*
G01*
X89102500Y-91890002D02*
X89102500Y-90989998D01*
G75*
G02*
X89352498Y-90740000I249998J0D01*
G01*
X89877502Y-90740000D01*
G75*
G02*
X90127500Y-90989998I0J-249998D01*
G01*
X90127500Y-91890002D01*
G75*
G02*
X89877502Y-92140000I-249998J0D01*
G01*
X89352498Y-92140000D01*
G75*
G02*
X89102500Y-91890002I0J249998D01*
G01*
G37*
%TD*%
%TO.C,J3*%
G36*
G01*
X78810000Y-152860000D02*
X78810000Y-152260000D01*
G75*
G02*
X79110000Y-151960000I300000J0D01*
G01*
X80910000Y-151960000D01*
G75*
G02*
X81210000Y-152260000I0J-300000D01*
G01*
X81210000Y-152860000D01*
G75*
G02*
X80910000Y-153160000I-300000J0D01*
G01*
X79110000Y-153160000D01*
G75*
G02*
X78810000Y-152860000I0J300000D01*
G01*
G37*
G36*
G01*
X78810000Y-161160000D02*
X78810000Y-160560000D01*
G75*
G02*
X79110000Y-160260000I300000J0D01*
G01*
X80910000Y-160260000D01*
G75*
G02*
X81210000Y-160560000I0J-300000D01*
G01*
X81210000Y-161160000D01*
G75*
G02*
X80910000Y-161460000I-300000J0D01*
G01*
X79110000Y-161460000D01*
G75*
G02*
X78810000Y-161160000I0J300000D01*
G01*
G37*
G36*
G01*
X78810000Y-164260000D02*
X78810000Y-163660000D01*
G75*
G02*
X79110000Y-163360000I300000J0D01*
G01*
X80910000Y-163360000D01*
G75*
G02*
X81210000Y-163660000I0J-300000D01*
G01*
X81210000Y-164260000D01*
G75*
G02*
X80910000Y-164560000I-300000J0D01*
G01*
X79110000Y-164560000D01*
G75*
G02*
X78810000Y-164260000I0J300000D01*
G01*
G37*
D10*
X80010000Y-157480000D03*
%TD*%
D11*
%TO.C,J11*%
X64770000Y-62230000D03*
X67310000Y-62230000D03*
X69850000Y-62230000D03*
X72390000Y-62230000D03*
X74930000Y-62230000D03*
X77470000Y-62230000D03*
X80010000Y-62230000D03*
D12*
X82550000Y-62230000D03*
%TD*%
D24*
%TO.C,Q5*%
X92170000Y-114620000D03*
X90170000Y-115570000D03*
X90170000Y-113670000D03*
%TD*%
%TO.C,Q3*%
X72660000Y-146050000D03*
X74660000Y-145100000D03*
X74660000Y-147000000D03*
%TD*%
%TO.C,R1*%
G36*
G01*
X85132500Y-121100002D02*
X85132500Y-120199998D01*
G75*
G02*
X85382498Y-119950000I249998J0D01*
G01*
X85907502Y-119950000D01*
G75*
G02*
X86157500Y-120199998I0J-249998D01*
G01*
X86157500Y-121100002D01*
G75*
G02*
X85907502Y-121350000I-249998J0D01*
G01*
X85382498Y-121350000D01*
G75*
G02*
X85132500Y-121100002I0J249998D01*
G01*
G37*
G36*
G01*
X83307500Y-121100002D02*
X83307500Y-120199998D01*
G75*
G02*
X83557498Y-119950000I249998J0D01*
G01*
X84082502Y-119950000D01*
G75*
G02*
X84332500Y-120199998I0J-249998D01*
G01*
X84332500Y-121100002D01*
G75*
G02*
X84082502Y-121350000I-249998J0D01*
G01*
X83557498Y-121350000D01*
G75*
G02*
X83307500Y-121100002I0J249998D01*
G01*
G37*
%TD*%
%TO.C,R11*%
G36*
G01*
X78697500Y-90989998D02*
X78697500Y-91890002D01*
G75*
G02*
X78447502Y-92140000I-249998J0D01*
G01*
X77922498Y-92140000D01*
G75*
G02*
X77672500Y-91890002I0J249998D01*
G01*
X77672500Y-90989998D01*
G75*
G02*
X77922498Y-90740000I249998J0D01*
G01*
X78447502Y-90740000D01*
G75*
G02*
X78697500Y-90989998I0J-249998D01*
G01*
G37*
G36*
G01*
X80522500Y-90989998D02*
X80522500Y-91890002D01*
G75*
G02*
X80272502Y-92140000I-249998J0D01*
G01*
X79747498Y-92140000D01*
G75*
G02*
X79497500Y-91890002I0J249998D01*
G01*
X79497500Y-90989998D01*
G75*
G02*
X79747498Y-90740000I249998J0D01*
G01*
X80272502Y-90740000D01*
G75*
G02*
X80522500Y-90989998I0J-249998D01*
G01*
G37*
%TD*%
%TO.C,Q1*%
X84360000Y-133670000D03*
X86360000Y-132720000D03*
X86360000Y-134620000D03*
%TD*%
%TO.C,FB2*%
G36*
G01*
X86710000Y-73916250D02*
X86710000Y-73403750D01*
G75*
G02*
X86928750Y-73185000I218750J0D01*
G01*
X87366250Y-73185000D01*
G75*
G02*
X87585000Y-73403750I0J-218750D01*
G01*
X87585000Y-73916250D01*
G75*
G02*
X87366250Y-74135000I-218750J0D01*
G01*
X86928750Y-74135000D01*
G75*
G02*
X86710000Y-73916250I0J218750D01*
G01*
G37*
G36*
G01*
X85135000Y-73916250D02*
X85135000Y-73403750D01*
G75*
G02*
X85353750Y-73185000I218750J0D01*
G01*
X85791250Y-73185000D01*
G75*
G02*
X86010000Y-73403750I0J-218750D01*
G01*
X86010000Y-73916250D01*
G75*
G02*
X85791250Y-74135000I-218750J0D01*
G01*
X85353750Y-74135000D01*
G75*
G02*
X85135000Y-73916250I0J218750D01*
G01*
G37*
%TD*%
%TO.C,FB1*%
G36*
G01*
X86710000Y-71376250D02*
X86710000Y-70863750D01*
G75*
G02*
X86928750Y-70645000I218750J0D01*
G01*
X87366250Y-70645000D01*
G75*
G02*
X87585000Y-70863750I0J-218750D01*
G01*
X87585000Y-71376250D01*
G75*
G02*
X87366250Y-71595000I-218750J0D01*
G01*
X86928750Y-71595000D01*
G75*
G02*
X86710000Y-71376250I0J218750D01*
G01*
G37*
G36*
G01*
X85135000Y-71376250D02*
X85135000Y-70863750D01*
G75*
G02*
X85353750Y-70645000I218750J0D01*
G01*
X85791250Y-70645000D01*
G75*
G02*
X86010000Y-70863750I0J-218750D01*
G01*
X86010000Y-71376250D01*
G75*
G02*
X85791250Y-71595000I-218750J0D01*
G01*
X85353750Y-71595000D01*
G75*
G02*
X85135000Y-71376250I0J218750D01*
G01*
G37*
%TD*%
%TO.C,R13*%
G36*
G01*
X70607500Y-136340002D02*
X70607500Y-135439998D01*
G75*
G02*
X70857498Y-135190000I249998J0D01*
G01*
X71382502Y-135190000D01*
G75*
G02*
X71632500Y-135439998I0J-249998D01*
G01*
X71632500Y-136340002D01*
G75*
G02*
X71382502Y-136590000I-249998J0D01*
G01*
X70857498Y-136590000D01*
G75*
G02*
X70607500Y-136340002I0J249998D01*
G01*
G37*
G36*
G01*
X68782500Y-136340002D02*
X68782500Y-135439998D01*
G75*
G02*
X69032498Y-135190000I249998J0D01*
G01*
X69557502Y-135190000D01*
G75*
G02*
X69807500Y-135439998I0J-249998D01*
G01*
X69807500Y-136340002D01*
G75*
G02*
X69557502Y-136590000I-249998J0D01*
G01*
X69032498Y-136590000D01*
G75*
G02*
X68782500Y-136340002I0J249998D01*
G01*
G37*
%TD*%
%TO.C,R10*%
G36*
G01*
X84270002Y-148190000D02*
X83369998Y-148190000D01*
G75*
G02*
X83120000Y-147940002I0J249998D01*
G01*
X83120000Y-147414998D01*
G75*
G02*
X83369998Y-147165000I249998J0D01*
G01*
X84270002Y-147165000D01*
G75*
G02*
X84520000Y-147414998I0J-249998D01*
G01*
X84520000Y-147940002D01*
G75*
G02*
X84270002Y-148190000I-249998J0D01*
G01*
G37*
G36*
G01*
X84270002Y-150015000D02*
X83369998Y-150015000D01*
G75*
G02*
X83120000Y-149765002I0J249998D01*
G01*
X83120000Y-149239998D01*
G75*
G02*
X83369998Y-148990000I249998J0D01*
G01*
X84270002Y-148990000D01*
G75*
G02*
X84520000Y-149239998I0J-249998D01*
G01*
X84520000Y-149765002D01*
G75*
G02*
X84270002Y-150015000I-249998J0D01*
G01*
G37*
%TD*%
D25*
%TO.C,J10*%
G36*
X75580000Y-76720602D02*
G01*
X75604534Y-76720602D01*
X75653365Y-76725412D01*
X75701490Y-76734984D01*
X75748445Y-76749228D01*
X75793778Y-76768005D01*
X75837051Y-76791136D01*
X75877850Y-76818396D01*
X75915779Y-76849524D01*
X75950476Y-76884221D01*
X75981604Y-76922150D01*
X76008864Y-76962949D01*
X76031995Y-77006222D01*
X76050772Y-77051555D01*
X76065016Y-77098510D01*
X76074588Y-77146635D01*
X76079398Y-77195466D01*
X76079398Y-77220000D01*
X76080000Y-77220000D01*
X76080000Y-77720000D01*
X76079398Y-77720000D01*
X76079398Y-77744534D01*
X76074588Y-77793365D01*
X76065016Y-77841490D01*
X76050772Y-77888445D01*
X76031995Y-77933778D01*
X76008864Y-77977051D01*
X75981604Y-78017850D01*
X75950476Y-78055779D01*
X75915779Y-78090476D01*
X75877850Y-78121604D01*
X75837051Y-78148864D01*
X75793778Y-78171995D01*
X75748445Y-78190772D01*
X75701490Y-78205016D01*
X75653365Y-78214588D01*
X75604534Y-78219398D01*
X75580000Y-78219398D01*
X75580000Y-78220000D01*
X75080000Y-78220000D01*
X75080000Y-76720000D01*
X75580000Y-76720000D01*
X75580000Y-76720602D01*
G37*
G36*
X74780000Y-78220000D02*
G01*
X74280000Y-78220000D01*
X74280000Y-78219398D01*
X74255466Y-78219398D01*
X74206635Y-78214588D01*
X74158510Y-78205016D01*
X74111555Y-78190772D01*
X74066222Y-78171995D01*
X74022949Y-78148864D01*
X73982150Y-78121604D01*
X73944221Y-78090476D01*
X73909524Y-78055779D01*
X73878396Y-78017850D01*
X73851136Y-77977051D01*
X73828005Y-77933778D01*
X73809228Y-77888445D01*
X73794984Y-77841490D01*
X73785412Y-77793365D01*
X73780602Y-77744534D01*
X73780602Y-77720000D01*
X73780000Y-77720000D01*
X73780000Y-77220000D01*
X73780602Y-77220000D01*
X73780602Y-77195466D01*
X73785412Y-77146635D01*
X73794984Y-77098510D01*
X73809228Y-77051555D01*
X73828005Y-77006222D01*
X73851136Y-76962949D01*
X73878396Y-76922150D01*
X73909524Y-76884221D01*
X73944221Y-76849524D01*
X73982150Y-76818396D01*
X74022949Y-76791136D01*
X74066222Y-76768005D01*
X74111555Y-76749228D01*
X74158510Y-76734984D01*
X74206635Y-76725412D01*
X74255466Y-76720602D01*
X74280000Y-76720602D01*
X74280000Y-76720000D01*
X74780000Y-76720000D01*
X74780000Y-78220000D01*
G37*
%TD*%
%TO.C,J9*%
G36*
X75580000Y-74180602D02*
G01*
X75604534Y-74180602D01*
X75653365Y-74185412D01*
X75701490Y-74194984D01*
X75748445Y-74209228D01*
X75793778Y-74228005D01*
X75837051Y-74251136D01*
X75877850Y-74278396D01*
X75915779Y-74309524D01*
X75950476Y-74344221D01*
X75981604Y-74382150D01*
X76008864Y-74422949D01*
X76031995Y-74466222D01*
X76050772Y-74511555D01*
X76065016Y-74558510D01*
X76074588Y-74606635D01*
X76079398Y-74655466D01*
X76079398Y-74680000D01*
X76080000Y-74680000D01*
X76080000Y-75180000D01*
X76079398Y-75180000D01*
X76079398Y-75204534D01*
X76074588Y-75253365D01*
X76065016Y-75301490D01*
X76050772Y-75348445D01*
X76031995Y-75393778D01*
X76008864Y-75437051D01*
X75981604Y-75477850D01*
X75950476Y-75515779D01*
X75915779Y-75550476D01*
X75877850Y-75581604D01*
X75837051Y-75608864D01*
X75793778Y-75631995D01*
X75748445Y-75650772D01*
X75701490Y-75665016D01*
X75653365Y-75674588D01*
X75604534Y-75679398D01*
X75580000Y-75679398D01*
X75580000Y-75680000D01*
X75080000Y-75680000D01*
X75080000Y-74180000D01*
X75580000Y-74180000D01*
X75580000Y-74180602D01*
G37*
G36*
X74780000Y-75680000D02*
G01*
X74280000Y-75680000D01*
X74280000Y-75679398D01*
X74255466Y-75679398D01*
X74206635Y-75674588D01*
X74158510Y-75665016D01*
X74111555Y-75650772D01*
X74066222Y-75631995D01*
X74022949Y-75608864D01*
X73982150Y-75581604D01*
X73944221Y-75550476D01*
X73909524Y-75515779D01*
X73878396Y-75477850D01*
X73851136Y-75437051D01*
X73828005Y-75393778D01*
X73809228Y-75348445D01*
X73794984Y-75301490D01*
X73785412Y-75253365D01*
X73780602Y-75204534D01*
X73780602Y-75180000D01*
X73780000Y-75180000D01*
X73780000Y-74680000D01*
X73780602Y-74680000D01*
X73780602Y-74655466D01*
X73785412Y-74606635D01*
X73794984Y-74558510D01*
X73809228Y-74511555D01*
X73828005Y-74466222D01*
X73851136Y-74422949D01*
X73878396Y-74382150D01*
X73909524Y-74344221D01*
X73944221Y-74309524D01*
X73982150Y-74278396D01*
X74022949Y-74251136D01*
X74066222Y-74228005D01*
X74111555Y-74209228D01*
X74158510Y-74194984D01*
X74206635Y-74185412D01*
X74255466Y-74180602D01*
X74280000Y-74180602D01*
X74280000Y-74180000D01*
X74780000Y-74180000D01*
X74780000Y-75680000D01*
G37*
%TD*%
%TO.C,R8*%
G36*
G01*
X78227500Y-113480002D02*
X78227500Y-112579998D01*
G75*
G02*
X78477498Y-112330000I249998J0D01*
G01*
X79002502Y-112330000D01*
G75*
G02*
X79252500Y-112579998I0J-249998D01*
G01*
X79252500Y-113480002D01*
G75*
G02*
X79002502Y-113730000I-249998J0D01*
G01*
X78477498Y-113730000D01*
G75*
G02*
X78227500Y-113480002I0J249998D01*
G01*
G37*
G36*
G01*
X76402500Y-113480002D02*
X76402500Y-112579998D01*
G75*
G02*
X76652498Y-112330000I249998J0D01*
G01*
X77177502Y-112330000D01*
G75*
G02*
X77427500Y-112579998I0J-249998D01*
G01*
X77427500Y-113480002D01*
G75*
G02*
X77177502Y-113730000I-249998J0D01*
G01*
X76652498Y-113730000D01*
G75*
G02*
X76402500Y-113480002I0J249998D01*
G01*
G37*
%TD*%
%TO.C,R7*%
G36*
G01*
X65997500Y-90989998D02*
X65997500Y-91890002D01*
G75*
G02*
X65747502Y-92140000I-249998J0D01*
G01*
X65222498Y-92140000D01*
G75*
G02*
X64972500Y-91890002I0J249998D01*
G01*
X64972500Y-90989998D01*
G75*
G02*
X65222498Y-90740000I249998J0D01*
G01*
X65747502Y-90740000D01*
G75*
G02*
X65997500Y-90989998I0J-249998D01*
G01*
G37*
G36*
G01*
X67822500Y-90989998D02*
X67822500Y-91890002D01*
G75*
G02*
X67572502Y-92140000I-249998J0D01*
G01*
X67047498Y-92140000D01*
G75*
G02*
X66797500Y-91890002I0J249998D01*
G01*
X66797500Y-90989998D01*
G75*
G02*
X67047498Y-90740000I249998J0D01*
G01*
X67572502Y-90740000D01*
G75*
G02*
X67822500Y-90989998I0J-249998D01*
G01*
G37*
%TD*%
%TO.C,R4*%
G36*
G01*
X60447500Y-150310002D02*
X60447500Y-149409998D01*
G75*
G02*
X60697498Y-149160000I249998J0D01*
G01*
X61222502Y-149160000D01*
G75*
G02*
X61472500Y-149409998I0J-249998D01*
G01*
X61472500Y-150310002D01*
G75*
G02*
X61222502Y-150560000I-249998J0D01*
G01*
X60697498Y-150560000D01*
G75*
G02*
X60447500Y-150310002I0J249998D01*
G01*
G37*
G36*
G01*
X58622500Y-150310002D02*
X58622500Y-149409998D01*
G75*
G02*
X58872498Y-149160000I249998J0D01*
G01*
X59397502Y-149160000D01*
G75*
G02*
X59647500Y-149409998I0J-249998D01*
G01*
X59647500Y-150310002D01*
G75*
G02*
X59397502Y-150560000I-249998J0D01*
G01*
X58872498Y-150560000D01*
G75*
G02*
X58622500Y-150310002I0J249998D01*
G01*
G37*
%TD*%
%TO.C,J5*%
G36*
G01*
X66110000Y-152860000D02*
X66110000Y-152260000D01*
G75*
G02*
X66410000Y-151960000I300000J0D01*
G01*
X68210000Y-151960000D01*
G75*
G02*
X68510000Y-152260000I0J-300000D01*
G01*
X68510000Y-152860000D01*
G75*
G02*
X68210000Y-153160000I-300000J0D01*
G01*
X66410000Y-153160000D01*
G75*
G02*
X66110000Y-152860000I0J300000D01*
G01*
G37*
G36*
G01*
X66110000Y-161160000D02*
X66110000Y-160560000D01*
G75*
G02*
X66410000Y-160260000I300000J0D01*
G01*
X68210000Y-160260000D01*
G75*
G02*
X68510000Y-160560000I0J-300000D01*
G01*
X68510000Y-161160000D01*
G75*
G02*
X68210000Y-161460000I-300000J0D01*
G01*
X66410000Y-161460000D01*
G75*
G02*
X66110000Y-161160000I0J300000D01*
G01*
G37*
G36*
G01*
X66110000Y-164260000D02*
X66110000Y-163660000D01*
G75*
G02*
X66410000Y-163360000I300000J0D01*
G01*
X68210000Y-163360000D01*
G75*
G02*
X68510000Y-163660000I0J-300000D01*
G01*
X68510000Y-164260000D01*
G75*
G02*
X68210000Y-164560000I-300000J0D01*
G01*
X66410000Y-164560000D01*
G75*
G02*
X66110000Y-164260000I0J300000D01*
G01*
G37*
D10*
X67310000Y-157480000D03*
%TD*%
D14*
%TO.C,D2*%
X57150000Y-124460000D03*
D15*
X54610000Y-124460000D03*
%TD*%
%TO.C,R5*%
G36*
G01*
X62680002Y-145650000D02*
X61779998Y-145650000D01*
G75*
G02*
X61530000Y-145400002I0J249998D01*
G01*
X61530000Y-144874998D01*
G75*
G02*
X61779998Y-144625000I249998J0D01*
G01*
X62680002Y-144625000D01*
G75*
G02*
X62930000Y-144874998I0J-249998D01*
G01*
X62930000Y-145400002D01*
G75*
G02*
X62680002Y-145650000I-249998J0D01*
G01*
G37*
G36*
G01*
X62680002Y-147475000D02*
X61779998Y-147475000D01*
G75*
G02*
X61530000Y-147225002I0J249998D01*
G01*
X61530000Y-146699998D01*
G75*
G02*
X61779998Y-146450000I249998J0D01*
G01*
X62680002Y-146450000D01*
G75*
G02*
X62930000Y-146699998I0J-249998D01*
G01*
X62930000Y-147225002D01*
G75*
G02*
X62680002Y-147475000I-249998J0D01*
G01*
G37*
%TD*%
%TO.C,R3*%
G36*
G01*
X84332500Y-122739998D02*
X84332500Y-123640002D01*
G75*
G02*
X84082502Y-123890000I-249998J0D01*
G01*
X83557498Y-123890000D01*
G75*
G02*
X83307500Y-123640002I0J249998D01*
G01*
X83307500Y-122739998D01*
G75*
G02*
X83557498Y-122490000I249998J0D01*
G01*
X84082502Y-122490000D01*
G75*
G02*
X84332500Y-122739998I0J-249998D01*
G01*
G37*
G36*
G01*
X86157500Y-122739998D02*
X86157500Y-123640002D01*
G75*
G02*
X85907502Y-123890000I-249998J0D01*
G01*
X85382498Y-123890000D01*
G75*
G02*
X85132500Y-123640002I0J249998D01*
G01*
X85132500Y-122739998D01*
G75*
G02*
X85382498Y-122490000I249998J0D01*
G01*
X85907502Y-122490000D01*
G75*
G02*
X86157500Y-122739998I0J-249998D01*
G01*
G37*
%TD*%
D24*
%TO.C,Q6*%
X56420000Y-118110000D03*
X58420000Y-117160000D03*
X58420000Y-119060000D03*
%TD*%
%TO.C,J4*%
G36*
G01*
X90240000Y-137620000D02*
X90240000Y-137020000D01*
G75*
G02*
X90540000Y-136720000I300000J0D01*
G01*
X92340000Y-136720000D01*
G75*
G02*
X92640000Y-137020000I0J-300000D01*
G01*
X92640000Y-137620000D01*
G75*
G02*
X92340000Y-137920000I-300000J0D01*
G01*
X90540000Y-137920000D01*
G75*
G02*
X90240000Y-137620000I0J300000D01*
G01*
G37*
G36*
G01*
X90240000Y-145920000D02*
X90240000Y-145320000D01*
G75*
G02*
X90540000Y-145020000I300000J0D01*
G01*
X92340000Y-145020000D01*
G75*
G02*
X92640000Y-145320000I0J-300000D01*
G01*
X92640000Y-145920000D01*
G75*
G02*
X92340000Y-146220000I-300000J0D01*
G01*
X90540000Y-146220000D01*
G75*
G02*
X90240000Y-145920000I0J300000D01*
G01*
G37*
G36*
G01*
X90240000Y-149020000D02*
X90240000Y-148420000D01*
G75*
G02*
X90540000Y-148120000I300000J0D01*
G01*
X92340000Y-148120000D01*
G75*
G02*
X92640000Y-148420000I0J-300000D01*
G01*
X92640000Y-149020000D01*
G75*
G02*
X92340000Y-149320000I-300000J0D01*
G01*
X90540000Y-149320000D01*
G75*
G02*
X90240000Y-149020000I0J300000D01*
G01*
G37*
D10*
X91440000Y-142240000D03*
%TD*%
%TO.C,R9*%
G36*
G01*
X86872500Y-149409998D02*
X86872500Y-150310002D01*
G75*
G02*
X86622502Y-150560000I-249998J0D01*
G01*
X86097498Y-150560000D01*
G75*
G02*
X85847500Y-150310002I0J249998D01*
G01*
X85847500Y-149409998D01*
G75*
G02*
X86097498Y-149160000I249998J0D01*
G01*
X86622502Y-149160000D01*
G75*
G02*
X86872500Y-149409998I0J-249998D01*
G01*
G37*
G36*
G01*
X88697500Y-149409998D02*
X88697500Y-150310002D01*
G75*
G02*
X88447502Y-150560000I-249998J0D01*
G01*
X87922498Y-150560000D01*
G75*
G02*
X87672500Y-150310002I0J249998D01*
G01*
X87672500Y-149409998D01*
G75*
G02*
X87922498Y-149160000I249998J0D01*
G01*
X88447502Y-149160000D01*
G75*
G02*
X88697500Y-149409998I0J-249998D01*
G01*
G37*
%TD*%
M02*
