M48
; DRILL file {KiCad (5.1.10)-1} date 04/24/22 20:34:18
; FORMAT={-:-/ absolute / inch / decimal}
; #@! TF.CreationDate,2022-04-24T20:34:18+02:00
; #@! TF.GenerationSoftware,Kicad,Pcbnew,(5.1.10)-1
FMAT,2
INCH
T1C0.0157
T2C0.0197
T3C0.0236
T4C0.0354
T5C0.0394
T6C0.0433
T7C0.0591
T8C0.1181
%
G90
G05
T1
X2.05Y-3.5
X2.05Y-4.4
X2.2Y-4.45
X2.25Y-3.15
X2.3Y-2.35
X2.3Y-3.1
X2.3Y-3.5
X2.3Y-4.8
X2.35Y-2.3
X2.35Y-3.5
X2.4Y-2.55
X2.4Y-4.6
X2.45Y-3.3
X2.45Y-5.1
X2.5Y-3.3
X2.5Y-4.8
X2.5Y-4.95
X2.5Y-5.55
X2.55Y-3.3
X2.6Y-3.3
X2.65Y-2.55
X2.65Y-3.25
X2.7Y-2.8
X2.7Y-4.55
X2.7Y-5.65
X2.75Y-4.55
X2.85Y-2.65
X2.85Y-3.1
X2.85Y-3.6
X2.85Y-4.6
X2.85Y-4.85
X2.85Y-5.65
X2.9Y-2.6
X2.9Y-2.7
X2.9244Y-3.1756
X3.0Y-3.15
X3.0Y-3.6
X3.05Y-4.6
X3.05Y-4.7
X3.1Y-5.2
X3.15Y-5.3
X3.2Y-2.55
X3.4Y-4.7
X3.65Y-4.65
X3.65Y-5.15
X3.7Y-4.45
T4
X2.15Y-4.9
X2.25Y-4.9
T5
X2.2Y-3.7291
X2.2Y-4.3
X2.2984Y-4.3
X2.3969Y-3.7291
X2.3969Y-4.3
X2.55Y-2.45
X2.55Y-3.4
X2.6Y-4.45
X2.6Y-4.55
X2.6Y-4.65
X2.6Y-4.75
X2.6Y-4.85
X2.6Y-4.95
X2.6Y-5.05
X2.6Y-5.15
X2.6Y-5.25
X2.6Y-5.35
X2.6Y-5.45
X2.6Y-5.55
X2.6Y-5.65
X2.6Y-5.75
X2.6Y-5.85
X2.65Y-2.45
X2.65Y-3.4
X2.75Y-2.45
X2.75Y-3.4
X2.8016Y-3.7257
X2.8016Y-4.2966
X2.8016Y-5.2
X2.85Y-2.45
X2.85Y-3.4
X2.9Y-4.2966
X2.9Y-5.2
X2.95Y-2.45
X2.95Y-3.4
X2.9984Y-3.7257
X2.9984Y-4.2966
X2.9984Y-5.2
X3.05Y-2.45
X3.05Y-3.4
X3.15Y-2.45
X3.15Y-3.4
X3.2Y-4.45
X3.2Y-4.55
X3.2Y-4.65
X3.2Y-4.75
X3.2Y-4.85
X3.2Y-4.95
X3.2Y-5.05
X3.2Y-5.15
X3.2Y-5.25
X3.2Y-5.35
X3.2Y-5.45
X3.2Y-5.55
X3.2Y-5.65
X3.2Y-5.75
X3.2Y-5.85
X3.25Y-2.45
X3.25Y-3.4
X3.4Y-3.7291
X3.4Y-4.3
X3.4984Y-4.3
X3.55Y-2.6
X3.55Y-2.7
X3.55Y-2.8
X3.55Y-2.9
X3.55Y-3.0
X3.55Y-3.1
X3.55Y-3.2
X3.55Y-3.3
X3.5969Y-3.7291
X3.5969Y-4.3
X3.65Y-2.6
X3.65Y-2.7
X3.65Y-2.8
X3.65Y-2.9
X3.65Y-3.0
X3.65Y-3.1
X3.65Y-3.2
X3.65Y-3.3
T6
X3.1Y-3.0
X3.1Y-3.1
X3.1Y-3.2
X3.5116Y-4.771
X3.5116Y-5.0269
X3.6887Y-4.771
X3.6887Y-5.0269
T8
X2.2Y-5.6
X2.2Y-6.2
X2.65Y-6.2
X3.15Y-6.2
X3.6Y-5.6
X3.6Y-6.2
T2
G00X2.1803Y-5.4063
M15
G01X2.2197Y-5.4063
M16
G05
G00X2.1803Y-6.0063
M15
G01X2.2197Y-6.0063
M16
G05
G00X2.6303Y-6.0063
M15
G01X2.6697Y-6.0063
M16
G05
G00X3.1303Y-6.0063
M15
G01X3.1697Y-6.0063
M16
G05
G00X3.5803Y-5.4063
M15
G01X3.6197Y-5.4063
M16
G05
G00X3.5803Y-6.0063
M15
G01X3.6197Y-6.0063
M16
G05
T3
G00X2.1823Y-5.7331
M15
G01X2.2177Y-5.7331
M16
G05
G00X2.1862Y-5.8551
M15
G01X2.2138Y-5.8551
M16
G05
G00X2.1823Y-6.3331
M15
G01X2.2177Y-6.3331
M16
G05
G00X2.1862Y-6.4551
M15
G01X2.2138Y-6.4551
M16
G05
G00X2.6323Y-6.3331
M15
G01X2.6677Y-6.3331
M16
G05
G00X2.6362Y-6.4551
M15
G01X2.6638Y-6.4551
M16
G05
G00X3.1323Y-6.3331
M15
G01X3.1677Y-6.3331
M16
G05
G00X3.1362Y-6.4551
M15
G01X3.1638Y-6.4551
M16
G05
G00X3.5823Y-5.7331
M15
G01X3.6177Y-5.7331
M16
G05
G00X3.5862Y-5.8551
M15
G01X3.6138Y-5.8551
M16
G05
G00X3.5823Y-6.3331
M15
G01X3.6177Y-6.3331
M16
G05
G00X3.5862Y-6.4551
M15
G01X3.6138Y-6.4551
M16
G05
T6
G00X2.711Y-4.9185
M15
G01X2.711Y-4.8909
M16
G05
G00X3.089Y-4.9185
M15
G01X3.089Y-4.8909
M16
G05
T7
G00X2.078Y-4.0303
M15
G01X2.078Y-3.9791
M16
G05
G00X2.5189Y-4.0303
M15
G01X2.5189Y-3.9791
M16
G05
G00X2.6795Y-4.0269
M15
G01X2.6795Y-3.9757
M16
G05
G00X3.1205Y-4.0269
M15
G01X3.1205Y-3.9757
M16
G05
G00X3.278Y-4.0303
M15
G01X3.278Y-3.9791
M16
G05
G00X3.7189Y-4.0303
M15
G01X3.7189Y-3.9791
M16
G05
T0
M30
